<svg width="1200" height="600" viewBox="0 0 1200 600" fill="none" xmlns="http://www.w3.org/2000/svg">
<rect width="1200" height="600" rx="48" fill="#5F6FD0"/>
<path d="M247.076 274.934H251.645V271.442C251.645 270.511 251.509 269.628 251.238 268.794C250.966 267.959 250.491 267.242 249.812 266.64C249.152 266.039 248.24 265.738 247.076 265.738C245.912 265.738 245.001 266.058 244.341 266.698C243.681 267.339 243.216 268.076 242.944 268.91C242.673 269.744 242.537 270.588 242.537 271.442C242.537 272.198 242.653 272.829 242.886 273.333C243.119 273.838 243.565 274.235 244.225 274.526C244.904 274.798 245.854 274.934 247.076 274.934ZM259.823 271.442V283.169C259.823 286.06 259.076 288.747 257.582 291.23C256.088 293.714 254.138 295.692 251.733 297.167C249.327 298.641 246.824 299.378 244.225 299.378H234.505V290.648H244.225C245.621 290.648 246.873 290.357 247.979 289.775C249.084 289.193 249.948 288.369 250.569 287.302C251.189 286.254 251.5 285.041 251.5 283.664H247.076C242.692 283.664 239.471 282.587 237.415 280.434C235.359 278.28 234.33 275.283 234.33 271.442C234.33 268.784 234.874 266.407 235.96 264.312C237.066 262.197 238.589 260.548 240.529 259.365C242.469 258.162 244.651 257.561 247.076 257.561C249.56 257.561 251.762 258.152 253.682 259.336C255.603 260.5 257.106 262.13 258.193 264.225C259.279 266.301 259.823 268.706 259.823 271.442ZM284.042 282.937C283.169 282.452 282.344 281.763 281.568 280.87V282.442C281.568 285.391 280.802 288.165 279.269 290.765C277.756 293.384 275.699 295.469 273.1 297.021C270.519 298.593 267.716 299.378 264.69 299.378H261.809V290.648H264.69C266.222 290.648 267.658 290.202 268.997 289.31C270.335 288.437 271.392 287.282 272.169 285.847C272.945 284.411 273.333 282.898 273.333 281.307V262.333H281.568V269.463C281.568 270.433 281.811 271.345 282.296 272.198C282.781 273.052 283.421 273.721 284.216 274.206C285.031 274.691 285.894 274.934 286.806 274.934H287.155V283.664H286.806C285.836 283.664 284.915 283.422 284.042 282.937ZM285.498 277.64C285.789 276.534 286.333 275.632 287.128 274.934H292.657C293.356 274.934 293.996 274.759 294.578 274.41C295.179 274.061 295.655 273.595 296.004 273.013C296.353 272.412 296.528 271.752 296.528 271.034V262.333H304.734V271.034C304.734 271.752 304.909 272.412 305.258 273.013C305.607 273.595 306.073 274.061 306.655 274.41C307.256 274.759 307.916 274.934 308.634 274.934H310.35V283.664H308.634C306.887 283.664 305.355 283.305 304.036 282.587C302.716 281.85 301.591 280.812 300.66 279.474C299.671 280.812 298.526 281.85 297.226 282.587C295.926 283.305 294.403 283.664 292.657 283.664H287.128C286.333 282.966 285.789 282.064 285.498 280.958C285.207 279.852 285.207 278.746 285.498 277.64ZM296.964 255.436C295.024 255.436 294.054 255.436 294.054 255.436C292.211 255.436 290.737 255.436 289.631 255.436C288.525 255.436 287.972 255.436 287.972 255.436C287.972 254.059 287.972 252.934 287.972 252.061C287.972 251.168 287.972 250.053 287.972 248.714C289.155 248.714 290.116 248.714 290.853 248.714C291.804 248.714 292.706 248.714 293.559 248.714C294.432 248.714 295.567 248.714 296.964 248.714C296.964 250.053 296.964 251.168 296.964 252.061C296.964 252.934 296.964 254.059 296.964 255.436ZM305.607 255.436C303.628 255.436 302.639 255.436 302.639 255.436C300.815 255.436 299.35 255.436 298.245 255.436C297.158 255.436 296.615 255.436 296.615 255.436C296.615 254.078 296.615 252.953 296.615 252.061C296.615 251.149 296.615 250.033 296.615 248.714C297.779 248.714 298.73 248.724 299.467 248.743C300.398 248.743 301.29 248.743 302.144 248.743C303.017 248.743 304.171 248.733 305.607 248.714C305.607 250.033 305.607 251.149 305.607 252.061C305.607 252.953 305.607 254.078 305.607 255.436ZM308.694 277.64C308.985 276.534 309.528 275.632 310.324 274.934H313.117C313.835 274.934 314.485 274.759 315.067 274.41C315.668 274.061 316.144 273.595 316.493 273.013C316.842 272.412 317.017 271.752 317.017 271.034V262.333H325.194V271.034C325.194 271.752 325.349 272.412 325.66 273.013C325.97 273.595 326.387 274.061 326.911 274.41C327.454 274.759 328.075 274.934 328.774 274.934H329.588C330.267 274.934 330.878 274.759 331.422 274.41C331.965 274.061 332.382 273.595 332.673 273.013C332.964 272.412 333.11 271.752 333.11 271.034V262.333H341.316V271.034C341.316 271.752 341.452 272.412 341.723 273.013C342.014 273.595 342.422 274.061 342.946 274.41C343.489 274.759 344.11 274.934 344.808 274.934H345.652C346.331 274.934 346.932 274.759 347.456 274.41C347.999 274.061 348.416 273.595 348.708 273.013C349.018 272.412 349.173 271.752 349.173 271.034V262.333H357.38V271.034C357.38 271.752 357.554 272.412 357.903 273.013C358.253 273.595 358.718 274.061 359.3 274.41C359.902 274.759 360.551 274.934 361.25 274.934H364.073V283.664H361.25C359.543 283.664 358.029 283.305 356.71 282.587C355.391 281.87 354.256 280.861 353.305 279.561C352.413 280.88 351.336 281.899 350.075 282.616C348.834 283.315 347.359 283.664 345.652 283.664H344.808C343.198 283.664 341.762 283.295 340.501 282.558C339.259 281.821 338.154 280.773 337.184 279.415C336.233 280.773 335.127 281.821 333.866 282.558C332.625 283.295 331.199 283.664 329.588 283.664H328.774C327.086 283.664 325.611 283.305 324.35 282.587C323.089 281.87 321.993 280.851 321.062 279.532C320.111 280.87 318.976 281.899 317.657 282.616C316.357 283.315 314.844 283.664 313.117 283.664H310.324C309.528 282.966 308.985 282.064 308.694 280.958C308.403 279.852 308.403 278.746 308.694 277.64ZM362.417 277.64C362.708 276.534 363.251 275.632 364.046 274.934H369.401C370.099 274.934 370.739 274.759 371.321 274.41C371.923 274.061 372.398 273.595 372.747 273.013C373.116 272.412 373.3 271.752 373.3 271.034V261.169H381.478V272.111C381.478 274.226 380.934 276.166 379.848 277.931C378.781 279.677 377.316 281.074 375.454 282.122C373.611 283.15 371.593 283.664 369.401 283.664H364.046C363.251 282.966 362.708 282.064 362.417 280.958C362.126 279.852 362.126 278.746 362.417 277.64ZM368.382 297.429C367.179 297.429 366.209 297.429 365.472 297.429C364.851 297.429 364.24 297.429 363.639 297.429C363.251 297.429 362.853 297.429 362.446 297.429C361.689 297.429 360.671 297.429 359.39 297.429C359.39 296.09 359.39 294.975 359.39 294.082C359.39 293.19 359.39 292.064 359.39 290.706C361.136 290.706 362.097 290.706 362.271 290.706C363.94 290.706 365.298 290.706 366.345 290.706C367.393 290.706 368.072 290.706 368.382 290.706C368.382 292.064 368.382 293.19 368.382 294.082C368.382 294.975 368.382 296.09 368.382 297.429ZM377.025 297.429C375.803 297.429 374.814 297.429 374.057 297.429C373.126 297.429 372.233 297.429 371.38 297.429C370.526 297.429 369.411 297.429 368.033 297.429C368.033 296.09 368.033 294.965 368.033 294.053C368.033 293.18 368.033 292.064 368.033 290.706C369.76 290.706 370.71 290.706 370.885 290.706C372.534 290.706 373.882 290.706 374.93 290.706C375.997 290.706 376.695 290.706 377.025 290.706C377.025 292.064 377.025 293.19 377.025 294.082C377.025 294.975 377.025 296.09 377.025 297.429ZM410.066 282.093C408.417 283.14 406.565 283.664 404.508 283.664H387.193V275.458H404.508C405.148 275.458 405.682 275.264 406.109 274.876C406.555 274.468 406.797 273.974 406.836 273.392C406.875 272.79 406.72 272.247 406.371 271.762L394.847 256.6L401.365 251.653L412.918 266.844C414.199 268.532 414.897 270.365 415.013 272.344C415.149 274.303 414.771 276.156 413.879 277.902C412.986 279.629 411.715 281.026 410.066 282.093ZM454.74 299.524H452.324C448.832 299.524 445.757 298.738 443.099 297.167C440.461 295.615 438.424 293.549 436.988 290.968C435.572 288.388 434.864 285.575 434.864 282.529V268.095H443.07V281.452C443.07 283.121 443.41 284.663 444.089 286.079C444.787 287.496 445.835 288.631 447.232 289.484C448.628 290.357 450.326 290.794 452.324 290.794H454.74C456.738 290.794 458.435 290.357 459.832 289.484C461.229 288.631 462.267 287.496 462.946 286.079C463.644 284.663 463.994 283.121 463.994 281.452L463.965 262.508H472.171L472.2 271.034C472.2 271.752 472.375 272.412 472.724 273.013C473.073 273.595 473.539 274.061 474.121 274.41C474.722 274.759 475.382 274.934 476.1 274.934H477.816V283.664H476.1C475.382 283.664 474.703 283.509 474.062 283.198C473.422 282.869 472.801 282.403 472.2 281.802V282.675C472.161 285.701 471.424 288.495 469.988 291.056C468.572 293.617 466.535 295.663 463.877 297.196C461.239 298.748 458.193 299.524 454.74 299.524ZM455.962 262.188C454.235 262.188 453.372 262.188 453.372 262.188C451.781 262.188 450.491 262.188 449.501 262.188C448.531 262.188 448.046 262.188 448.046 262.188C448.046 260.81 448.046 259.666 448.046 258.754C448.046 257.861 448.046 256.736 448.046 255.378C449.075 255.378 449.919 255.378 450.578 255.378C451.412 255.398 452.208 255.407 452.964 255.407C453.74 255.407 454.74 255.407 455.962 255.407C455.962 256.746 455.962 257.861 455.962 258.754C455.962 259.666 455.962 260.81 455.962 262.188ZM499.346 273.915C499.87 273.12 500.132 271.995 500.132 270.54C500.132 269.046 499.764 267.804 499.026 266.815C498.289 265.806 497.096 265.292 495.447 265.272C493.876 265.292 492.702 265.757 491.926 266.669C491.15 267.581 490.752 268.881 490.733 270.569C490.713 271.578 490.868 272.48 491.198 273.275C491.528 274.051 492.042 274.672 492.741 275.138C493.439 275.603 494.341 275.836 495.447 275.836C496.184 275.836 496.883 275.71 497.542 275.458C498.221 275.205 498.823 274.691 499.346 273.915ZM510.259 274.352C510.861 274.74 511.511 274.934 512.209 274.934H513.024V283.664H512.209C510.482 283.664 508.979 283.295 507.698 282.558C506.418 281.802 505.293 280.735 504.323 279.357C503.314 280.87 502.082 282.034 500.627 282.849C499.191 283.645 497.465 284.042 495.447 284.042C493.371 284.042 491.606 283.645 490.151 282.849C488.715 282.054 487.502 280.899 486.513 279.386C485.543 280.764 484.418 281.821 483.137 282.558C481.876 283.295 480.382 283.664 478.656 283.664H477.841C477.046 282.966 476.512 282.064 476.24 280.958C475.949 279.852 475.949 278.746 476.24 277.64C476.512 276.534 477.046 275.632 477.841 274.934H478.656C479.742 274.934 480.664 274.517 481.42 273.683C482.177 272.848 482.565 271.888 482.584 270.802C482.565 270.802 482.555 270.802 482.555 270.802C482.575 270.666 482.584 270.578 482.584 270.54C482.604 268.095 483.118 265.854 484.127 263.817C485.136 261.78 486.61 260.151 488.55 258.928C490.49 257.706 492.799 257.095 495.476 257.095C497.959 257.115 500.171 257.706 502.111 258.87C504.07 260.015 505.584 261.606 506.651 263.643C507.737 265.66 508.29 267.969 508.309 270.569C508.309 270.705 508.3 270.792 508.28 270.831C508.3 271.529 508.484 272.198 508.833 272.839C509.202 273.459 509.677 273.964 510.259 274.352ZM511.323 277.64C511.614 276.534 512.157 275.632 512.953 274.934H519.18C523.099 274.934 526.941 274.478 530.704 273.566C534.468 272.654 537.785 271.539 540.657 270.22C539.609 269.735 537.95 268.968 535.681 267.921C533.12 266.757 531.073 265.806 529.54 265.069C529.23 264.933 528.939 264.807 528.667 264.69C527.833 264.302 527.057 264.215 526.339 264.428C525.641 264.642 525.059 265.011 524.593 265.534C524.128 266.058 523.788 266.621 523.575 267.222L522.847 268.852L515.339 265.534L516.067 263.905C516.998 261.712 518.307 259.957 519.995 258.637C521.683 257.318 523.565 256.523 525.641 256.251C527.717 255.98 529.783 256.271 531.839 257.124C533.702 257.939 535.816 258.958 538.183 260.18C540.55 261.383 542.752 262.547 544.789 263.672C546.826 264.797 547.845 265.36 547.845 265.36L548.107 271.995C548.087 272.053 547.971 272.16 547.757 272.315C547.02 272.936 546.273 273.527 545.517 274.09L546.128 274.614C546.593 274.827 547.146 274.934 547.786 274.934H553.199V283.664H547.786C546.331 283.664 544.993 283.363 543.771 282.762C542.548 282.141 541.704 281.307 541.239 280.259L539.9 278.077C537.009 279.726 533.828 281.074 530.355 282.122C526.882 283.15 523.158 283.664 519.18 283.664H512.953C512.157 282.966 511.614 282.064 511.323 280.958C511.032 279.852 511.032 278.746 511.323 277.64ZM532.741 297.254C531.015 297.254 530.151 297.254 530.151 297.254C528.561 297.235 527.27 297.225 526.281 297.225C525.311 297.225 524.826 297.225 524.826 297.225C524.826 295.848 524.826 294.703 524.826 293.791C524.826 292.899 524.826 291.783 524.826 290.445C525.854 290.445 526.698 290.445 527.358 290.445C528.192 290.445 528.987 290.445 529.744 290.445C530.52 290.445 531.519 290.445 532.741 290.445C532.741 291.783 532.741 292.908 532.741 293.82C532.741 294.713 532.741 295.857 532.741 297.254ZM551.584 277.64C551.875 276.534 552.418 275.632 553.213 274.934H558.742C559.441 274.934 560.081 274.759 560.663 274.41C561.264 274.061 561.74 273.595 562.089 273.013C562.438 272.412 562.613 271.752 562.613 271.034V261.169H570.819V272.111C570.819 274.226 570.276 276.166 569.19 277.931C568.103 279.677 566.638 281.074 564.795 282.122C562.952 283.15 560.935 283.664 558.742 283.664H553.213C552.418 282.966 551.875 282.064 551.584 280.958C551.293 279.852 551.293 278.746 551.584 277.64ZM568.055 254.301C566.328 254.301 565.465 254.301 565.465 254.301C563.874 254.301 562.584 254.301 561.594 254.301C560.624 254.301 560.139 254.301 560.139 254.301C560.139 252.924 560.139 251.779 560.139 250.868C560.139 249.975 560.139 248.85 560.139 247.492C561.167 247.492 562.011 247.492 562.671 247.492C563.505 247.511 564.301 247.521 565.057 247.521C565.833 247.521 566.832 247.521 568.055 247.521C568.055 248.86 568.055 249.975 568.055 250.868C568.055 251.779 568.055 252.924 568.055 254.301ZM578.994 283.664V241.526H587.201V283.664H578.994ZM620.86 274.934H625.429V271.442C625.429 270.511 625.293 269.628 625.021 268.794C624.75 267.959 624.274 267.242 623.595 266.64C622.936 266.039 622.024 265.738 620.86 265.738C619.696 265.738 618.784 266.058 618.124 266.698C617.465 267.339 616.999 268.076 616.727 268.91C616.456 269.744 616.32 270.588 616.32 271.442C616.32 272.198 616.436 272.829 616.669 273.333C616.902 273.838 617.348 274.235 618.008 274.526C618.687 274.798 619.637 274.934 620.86 274.934ZM633.606 271.442V283.169C633.606 286.06 632.859 288.747 631.365 291.23C629.871 293.714 627.921 295.692 625.516 297.167C623.11 298.641 620.608 299.378 618.008 299.378H608.288V290.648H618.008C619.405 290.648 620.656 290.357 621.762 289.775C622.868 289.193 623.731 288.369 624.352 287.302C624.973 286.254 625.283 285.041 625.283 283.664H620.86C616.475 283.664 613.255 282.587 611.198 280.434C609.142 278.28 608.114 275.283 608.114 271.442C608.114 268.784 608.657 266.407 609.743 264.312C610.849 262.197 612.372 260.548 614.312 259.365C616.252 258.162 618.435 257.561 620.86 257.561C623.343 257.561 625.545 258.152 627.466 259.336C629.386 260.5 630.89 262.13 631.976 264.225C633.063 266.301 633.606 268.706 633.606 271.442ZM675.077 282.093C673.428 283.14 671.575 283.664 669.519 283.664H652.204V275.458H669.519C670.159 275.458 670.693 275.264 671.119 274.876C671.566 274.468 671.808 273.974 671.847 273.392C671.886 272.79 671.731 272.247 671.381 271.762L659.857 256.6L666.376 251.653L677.929 266.844C679.209 268.532 679.908 270.365 680.024 272.344C680.16 274.303 679.782 276.156 678.889 277.902C677.997 279.629 676.726 281.026 675.077 282.093ZM702.463 274.934V283.664H699.611C697.186 283.664 695.071 283.14 693.267 282.093C691.482 281.026 690.114 279.619 689.164 277.873C688.232 276.127 687.767 274.206 687.767 272.111V241.526H695.973V271.034C695.973 271.752 696.119 272.412 696.41 273.013C696.701 273.615 697.118 274.09 697.661 274.439C698.224 274.769 698.874 274.934 699.611 274.934H702.463ZM700.806 277.64C701.097 276.534 701.64 275.632 702.436 274.934H707.79C708.489 274.934 709.129 274.759 709.711 274.41C710.312 274.061 710.788 273.595 711.137 273.013C711.506 272.412 711.69 271.752 711.69 271.034V262.333H719.867V271.034C719.867 271.752 720.042 272.412 720.391 273.013C720.74 273.595 721.216 274.061 721.817 274.41C722.418 274.759 723.068 274.934 723.767 274.934H725.513V283.664H723.767C722.021 283.664 720.488 283.305 719.169 282.587C717.869 281.85 716.734 280.812 715.764 279.474C714.833 280.812 713.698 281.85 712.359 282.587C711.04 283.305 709.517 283.664 707.79 283.664H702.436C701.64 282.966 701.097 282.064 700.806 280.958C700.515 279.852 700.515 278.746 700.806 277.64ZM706.772 297.429C705.569 297.429 704.599 297.429 703.862 297.429C703.241 297.429 702.63 297.429 702.028 297.429C701.64 297.429 701.243 297.429 700.835 297.429C700.079 297.429 699.06 297.429 697.78 297.429C697.78 296.09 697.78 294.975 697.78 294.082C697.78 293.19 697.78 292.064 697.78 290.706C699.526 290.706 700.486 290.706 700.661 290.706C702.329 290.706 703.687 290.706 704.735 290.706C705.782 290.706 706.461 290.706 706.772 290.706C706.772 292.064 706.772 293.19 706.772 294.082C706.772 294.975 706.772 296.09 706.772 297.429ZM715.415 297.429C714.193 297.429 713.203 297.429 712.446 297.429C711.515 297.429 710.623 297.429 709.769 297.429C708.916 297.429 707.8 297.429 706.423 297.429C706.423 296.09 706.423 294.965 706.423 294.053C706.423 293.18 706.423 292.064 706.423 290.706C708.149 290.706 709.1 290.706 709.275 290.706C710.924 290.706 712.272 290.706 713.32 290.706C714.387 290.706 715.085 290.706 715.415 290.706C715.415 292.064 715.415 293.19 715.415 294.082C715.415 294.975 715.415 296.09 715.415 297.429ZM723.875 277.64C724.166 276.534 724.71 275.632 725.505 274.934H731.034C731.733 274.934 732.373 274.759 732.955 274.41C733.556 274.061 734.031 273.595 734.381 273.013C734.73 272.412 734.905 271.752 734.905 271.034V262.333H743.111V271.034C743.111 271.752 743.286 272.412 743.635 273.013C743.984 273.595 744.45 274.061 745.032 274.41C745.633 274.759 746.293 274.934 747.01 274.934H748.727V283.664H747.01C745.264 283.664 743.732 283.305 742.412 282.587C741.093 281.85 739.968 280.812 739.037 279.474C738.047 280.812 736.903 281.85 735.603 282.587C734.303 283.305 732.78 283.664 731.034 283.664H725.505C724.71 282.966 724.166 282.064 723.875 280.958C723.584 279.852 723.584 278.746 723.875 277.64ZM740.346 255.553C738.62 255.553 737.756 255.553 737.756 255.553C736.166 255.553 734.875 255.553 733.886 255.553C732.916 255.553 732.431 255.553 732.431 255.553C732.431 254.175 732.431 253.031 732.431 252.119C732.431 251.226 732.431 250.101 732.431 248.743C733.459 248.743 734.303 248.743 734.963 248.743C735.797 248.763 736.592 248.772 737.349 248.772C738.125 248.772 739.124 248.772 740.346 248.772C740.346 250.111 740.346 251.226 740.346 252.119C740.346 253.031 740.346 254.175 740.346 255.553ZM747.071 277.64C747.362 276.534 747.905 275.632 748.701 274.934H754.23C754.928 274.934 755.568 274.759 756.15 274.41C756.752 274.061 757.227 273.595 757.576 273.013C757.925 272.412 758.1 271.752 758.1 271.034V261.169H766.306V272.111C766.306 274.226 765.763 276.166 764.677 277.931C763.59 279.677 762.126 281.074 760.283 282.122C758.44 283.15 756.422 283.664 754.23 283.664H748.701C747.905 282.966 747.362 282.064 747.071 280.958C746.78 279.852 746.78 278.746 747.071 277.64ZM757.547 297.516C755.821 297.516 754.957 297.516 754.957 297.516C753.366 297.497 752.076 297.487 751.087 297.487C750.117 297.487 749.632 297.487 749.632 297.487C749.632 296.109 749.632 294.965 749.632 294.053C749.632 293.161 749.632 292.045 749.632 290.706C750.66 290.706 751.504 290.706 752.164 290.706C752.998 290.706 753.793 290.706 754.55 290.706C755.326 290.706 756.325 290.706 757.547 290.706C757.547 292.045 757.547 293.17 757.547 294.082C757.547 294.975 757.547 296.119 757.547 297.516Z" fill="white"/>
<path d="M238.178 360.989H241.452V358.123C241.452 357.492 241.345 356.886 241.131 356.304C240.918 355.722 240.569 355.237 240.084 354.849C239.599 354.461 238.963 354.267 238.178 354.267C237.46 354.267 236.859 354.451 236.374 354.82C235.889 355.179 235.525 355.649 235.282 356.231C235.04 356.813 234.918 357.444 234.918 358.123C234.918 358.734 235.03 359.253 235.253 359.68C235.476 360.106 235.825 360.431 236.301 360.654C236.786 360.878 237.411 360.989 238.178 360.989ZM240.739 366.504C241.185 365.708 241.408 364.743 241.408 363.608H238.178C236.277 363.608 234.846 363.128 233.885 362.168C232.925 361.198 232.445 359.849 232.445 358.123C232.445 356.91 232.687 355.824 233.172 354.863C233.667 353.903 234.346 353.156 235.209 352.623C236.083 352.079 237.072 351.808 238.178 351.808C239.303 351.808 240.297 352.075 241.161 352.608C242.034 353.132 242.708 353.874 243.183 354.834C243.668 355.785 243.911 356.881 243.911 358.123V360.989H246.573V363.608H243.896C243.877 365.18 243.513 366.567 242.805 367.77C242.106 368.972 241.165 369.899 239.982 370.549C238.799 371.208 237.494 371.538 236.068 371.538H232.343V368.919H236.068C237.125 368.919 238.057 368.715 238.862 368.308C239.676 367.901 240.302 367.299 240.739 366.504ZM245.783 361.789C245.929 361.45 246.195 361.183 246.583 360.989H249.552C250.075 360.989 250.56 360.858 251.007 360.596C251.463 360.334 251.821 359.98 252.083 359.534C252.345 359.078 252.476 358.583 252.476 358.05V353.845H254.95V358.05C254.95 358.583 255.081 359.078 255.343 359.534C255.605 359.98 255.959 360.334 256.405 360.596C256.861 360.858 257.351 360.989 257.874 360.989H258.544V363.608H257.874C256.943 363.608 256.119 363.38 255.401 362.924C254.683 362.468 254.12 361.857 253.713 361.091C253.296 361.857 252.728 362.468 252.011 362.924C251.293 363.38 250.473 363.608 249.552 363.608H246.583C246.195 363.414 245.929 363.147 245.783 362.808C245.638 362.468 245.638 362.129 245.783 361.789ZM253.393 349.785C252.733 349.785 252.403 349.785 252.403 349.785C251.783 349.785 251.283 349.785 250.905 349.785C250.526 349.785 250.337 349.785 250.337 349.785C250.337 349.271 250.337 348.844 250.337 348.505C250.337 348.165 250.337 347.743 250.337 347.239C250.735 347.239 251.06 347.239 251.312 347.239C251.632 347.239 251.938 347.239 252.229 347.239C252.53 347.239 252.918 347.239 253.393 347.239C253.393 347.743 253.393 348.165 253.393 348.505C253.393 348.844 253.393 349.271 253.393 349.785ZM257.728 361.789C257.874 361.45 258.141 361.183 258.529 360.989H262.705C263.248 360.989 263.743 360.858 264.189 360.596C264.635 360.334 264.989 359.98 265.251 359.534C265.513 359.078 265.644 358.583 265.644 358.05V353.379H268.117V358.341C268.117 359.301 267.875 360.184 267.39 360.989C266.905 361.794 266.245 362.434 265.411 362.91C264.587 363.375 263.684 363.608 262.705 363.608H258.529C258.141 363.414 257.874 363.147 257.728 362.808C257.583 362.468 257.583 362.129 257.728 361.789ZM258.631 371.029C258.233 371.029 257.913 371.029 257.67 371.029C257.457 371.029 257.253 371.029 257.059 371.029C256.943 371.029 256.817 371.029 256.681 371.029C256.419 371.029 256.079 371.029 255.662 371.029C255.662 370.524 255.662 370.107 255.662 369.778C255.662 369.438 255.662 369.021 255.662 368.526C256.05 368.526 256.366 368.531 256.608 368.541C256.928 368.541 257.229 368.541 257.51 368.541C257.791 368.541 258.165 368.536 258.631 368.526C258.631 369.021 258.631 369.438 258.631 369.778C258.631 370.107 258.631 370.524 258.631 371.029ZM263.403 371.014C262.996 371.014 262.671 371.014 262.428 371.014C262.128 371.014 261.832 371.014 261.541 371.014C261.259 371.014 260.891 371.014 260.435 371.014C260.435 370.52 260.435 370.107 260.435 369.778C260.435 369.448 260.435 369.031 260.435 368.526C260.823 368.526 261.133 368.526 261.366 368.526C261.686 368.526 261.987 368.526 262.268 368.526C262.559 368.526 262.937 368.526 263.403 368.526C263.403 369.031 263.403 369.448 263.403 369.778C263.403 370.107 263.403 370.52 263.403 371.014ZM269.096 371.538H268.063V368.919H269.096C270.066 368.919 270.968 368.652 271.802 368.119C272.637 367.585 273.296 366.877 273.781 365.994C274.276 365.112 274.523 364.176 274.523 363.186V353.845H277.011V363.477C277.011 364.893 276.652 366.222 275.935 367.464C275.217 368.706 274.252 369.695 273.039 370.432C271.827 371.169 270.512 371.538 269.096 371.538ZM274.872 349.625C274.232 349.625 273.912 349.625 273.912 349.625C273.311 349.625 272.826 349.625 272.457 349.625C272.088 349.625 271.904 349.625 271.904 349.625C271.904 349.121 271.904 348.704 271.904 348.374C271.904 348.044 271.904 347.632 271.904 347.137C272.292 347.137 272.607 347.137 272.85 347.137C273.17 347.137 273.471 347.137 273.752 347.137C274.033 347.137 274.407 347.137 274.872 347.137C274.872 347.632 274.872 348.044 274.872 348.374C274.872 348.704 274.872 349.121 274.872 349.625ZM279.645 349.625C278.995 349.625 278.67 349.625 278.67 349.625C278.069 349.625 277.584 349.625 277.215 349.625C276.856 349.625 276.677 349.625 276.677 349.625C276.677 349.121 276.677 348.704 276.677 348.374C276.677 348.034 276.677 347.617 276.677 347.123C277.065 347.123 277.375 347.127 277.608 347.137C277.928 347.137 278.229 347.137 278.51 347.137C278.801 347.137 279.179 347.132 279.645 347.123C279.645 347.617 279.645 348.034 279.645 348.374C279.645 348.704 279.645 349.121 279.645 349.625ZM277.259 345.26C276.618 345.26 276.298 345.26 276.298 345.26C275.687 345.26 275.197 345.26 274.829 345.26C274.47 345.26 274.29 345.26 274.29 345.26C274.29 344.756 274.29 344.339 274.29 344.009C274.29 343.669 274.29 343.252 274.29 342.757C274.678 342.757 274.994 342.762 275.236 342.772C275.547 342.772 275.842 342.772 276.124 342.772C276.415 342.772 276.793 342.767 277.259 342.757C277.259 343.252 277.259 343.669 277.259 344.009C277.259 344.339 277.259 344.756 277.259 345.26ZM286.951 371.538H285.918V368.919H286.951C287.921 368.919 288.823 368.652 289.657 368.119C290.491 367.585 291.151 366.877 291.636 365.994C292.131 365.112 292.378 364.176 292.378 363.186V353.845H294.866V363.477C294.866 364.893 294.507 366.222 293.789 367.464C293.072 368.706 292.106 369.695 290.894 370.432C289.681 371.169 288.367 371.538 286.951 371.538ZM295.157 349.625C294.498 349.625 294.168 349.625 294.168 349.625C293.547 349.625 293.047 349.625 292.669 349.625C292.291 349.625 292.102 349.625 292.102 349.625C292.102 349.111 292.102 348.684 292.102 348.345C292.102 348.005 292.102 347.583 292.102 347.079C292.499 347.079 292.824 347.079 293.076 347.079C293.397 347.079 293.702 347.079 293.993 347.079C294.294 347.079 294.682 347.079 295.157 347.079C295.157 347.583 295.157 348.005 295.157 348.345C295.157 348.684 295.157 349.111 295.157 349.625ZM299.595 363.608V342.787H302.083V363.608H299.595ZM325.534 362.822C324.777 362.308 324.21 361.581 323.832 360.64C322.736 361.464 321.596 362.012 320.412 362.284C319.229 362.546 318.118 362.546 317.08 362.284C316.042 362.022 315.198 361.527 314.549 360.8C313.899 360.063 313.54 359.156 313.472 358.079C313.375 356.585 313.632 355.261 314.243 354.107C314.864 352.943 315.814 352.031 317.095 351.371C318.385 350.712 319.961 350.377 321.824 350.367L321.547 348.447L324.006 348.097L325.578 358.836C325.665 359.456 325.941 359.971 326.407 360.378C326.882 360.776 327.43 360.979 328.051 360.989H328.881V363.608H328.066C327.135 363.598 326.291 363.337 325.534 362.822ZM323.031 358.603L322.173 352.826C320.776 352.788 319.597 352.967 318.637 353.365C317.687 353.762 316.983 354.344 316.527 355.111C316.071 355.877 315.877 356.803 315.945 357.89C316.004 358.637 316.372 359.224 317.051 359.65C317.74 360.077 318.627 360.223 319.714 360.087C320.8 359.941 321.906 359.447 323.031 358.603ZM328.074 361.789C328.219 361.45 328.486 361.183 328.874 360.989H333.05C333.593 360.989 334.088 360.858 334.534 360.596C334.98 360.334 335.334 359.98 335.596 359.534C335.858 359.078 335.989 358.583 335.989 358.05V353.845H338.462V358.05C338.462 358.583 338.593 359.078 338.855 359.534C339.117 359.98 339.471 360.334 339.918 360.596C340.364 360.858 340.854 360.989 341.387 360.989H342.056V363.608H341.387C340.456 363.608 339.631 363.38 338.914 362.924C338.196 362.468 337.633 361.857 337.226 361.091C336.809 361.857 336.241 362.468 335.523 362.924C334.805 363.38 333.981 363.608 333.05 363.608H328.874C328.486 363.414 328.219 363.147 328.074 362.808C327.928 362.468 327.928 362.129 328.074 361.789ZM333.719 349.625C333.079 349.625 332.759 349.625 332.759 349.625C332.157 349.625 331.672 349.625 331.304 349.625C330.935 349.625 330.751 349.625 330.751 349.625C330.751 349.121 330.751 348.704 330.751 348.374C330.751 348.044 330.751 347.632 330.751 347.137C331.139 347.137 331.454 347.137 331.697 347.137C332.017 347.137 332.317 347.137 332.599 347.137C332.88 347.137 333.253 347.137 333.719 347.137C333.719 347.632 333.719 348.044 333.719 348.374C333.719 348.704 333.719 349.121 333.719 349.625ZM338.492 349.625C337.842 349.625 337.517 349.625 337.517 349.625C336.915 349.625 336.43 349.625 336.062 349.625C335.703 349.625 335.523 349.625 335.523 349.625C335.523 349.121 335.523 348.704 335.523 348.374C335.523 348.034 335.523 347.617 335.523 347.123C335.911 347.123 336.222 347.127 336.455 347.137C336.775 347.137 337.075 347.137 337.357 347.137C337.648 347.137 338.026 347.132 338.492 347.123C338.492 347.617 338.492 348.034 338.492 348.374C338.492 348.704 338.492 349.121 338.492 349.625ZM349.385 355.911H352.906V353.263C352.906 352.681 352.78 352.133 352.528 351.619C352.276 351.095 351.917 350.673 351.451 350.353C350.986 350.033 350.452 349.873 349.851 349.873C348.91 349.873 348.172 350.193 347.639 350.833C347.105 351.463 346.814 352.191 346.766 353.015C346.688 353.937 346.868 354.65 347.304 355.154C347.741 355.659 348.434 355.911 349.385 355.911ZM341.251 361.789C341.397 361.45 341.664 361.183 342.052 360.989H349.865C350.428 360.989 350.937 360.878 351.393 360.654C351.849 360.431 352.213 360.121 352.484 359.723C352.766 359.325 352.906 358.879 352.906 358.385V358.297H348.876C347.751 358.297 346.839 358.089 346.14 357.672C345.442 357.245 344.942 356.653 344.642 355.896C344.351 355.13 344.234 354.209 344.292 353.132C344.331 352.055 344.598 351.08 345.093 350.207C345.587 349.334 346.252 348.65 347.086 348.156C347.92 347.661 348.842 347.414 349.851 347.414C350.898 347.414 351.844 347.671 352.688 348.185C353.532 348.699 354.191 349.397 354.667 350.28C355.142 351.153 355.38 352.099 355.38 353.117V358.385C355.38 359.335 355.128 360.208 354.623 361.004C354.128 361.799 353.459 362.434 352.615 362.91C351.771 363.375 350.855 363.608 349.865 363.608H342.052C341.664 363.414 341.397 363.147 341.251 362.808C341.106 362.468 341.106 362.129 341.251 361.789ZM351.378 343.718C350.719 343.718 350.389 343.718 350.389 343.718C349.768 343.718 349.269 343.718 348.89 343.718C348.512 343.718 348.323 343.718 348.323 343.718C348.323 343.204 348.323 342.777 348.323 342.437C348.323 342.098 348.323 341.676 348.323 341.171C348.721 341.171 349.046 341.171 349.298 341.171C349.618 341.171 349.923 341.171 350.214 341.171C350.515 341.171 350.903 341.171 351.378 341.171C351.378 341.676 351.378 342.098 351.378 342.437C351.378 342.777 351.378 343.204 351.378 343.718ZM356.717 371.538H354.534V368.919H356.717C357.687 368.919 358.589 368.652 359.423 368.119C360.257 367.585 360.917 366.877 361.402 365.994C361.897 365.112 362.144 364.176 362.144 363.186V353.845H364.618V357.235C364.618 357.914 364.783 358.545 365.112 359.127C365.452 359.699 365.908 360.155 366.48 360.494C367.062 360.824 367.697 360.989 368.386 360.989H368.532V363.608H368.386C367.62 363.608 366.907 363.414 366.247 363.026C365.588 362.628 365.044 362.095 364.618 361.426V363.434C364.618 364.85 364.259 366.184 363.541 367.435C362.833 368.686 361.872 369.681 360.66 370.418C359.457 371.165 358.143 371.538 356.717 371.538ZM367.733 361.789C367.879 361.45 368.146 361.183 368.534 360.989H377.759C378.35 360.989 378.84 360.79 379.228 360.393C379.616 359.985 379.825 359.5 379.854 358.937C379.883 358.375 379.689 357.875 379.272 357.439L371.458 349.247V346.773L381.775 342.816L382.648 345.144L374.077 348.418L381.207 355.896C381.867 356.585 382.264 357.376 382.4 358.268C382.536 359.161 382.429 360.019 382.08 360.844C381.731 361.658 381.188 362.323 380.45 362.837C379.723 363.351 378.869 363.608 377.89 363.608H368.534C368.146 363.414 367.879 363.147 367.733 362.808C367.588 362.468 367.588 362.129 367.733 361.789ZM380.174 340.735L371.138 344.052L371.124 342.466L379.621 339.309L380.174 340.735ZM409.684 363.608H399.12C398.141 363.608 397.234 363.375 396.4 362.91C395.575 362.434 394.92 361.794 394.435 360.989C393.95 360.184 393.708 359.301 393.708 358.341V353.379H396.196V358.05C396.196 358.583 396.327 359.078 396.589 359.534C396.851 359.98 397.2 360.334 397.636 360.596C398.083 360.858 398.577 360.989 399.12 360.989H409.684C410.218 360.989 410.707 360.858 411.154 360.596C411.609 360.334 411.968 359.98 412.23 359.534C412.492 359.078 412.623 358.583 412.623 358.05V353.379H415.082V358.341C415.082 359.301 414.84 360.184 414.355 360.989C413.879 361.794 413.225 362.434 412.39 362.91C411.566 363.375 410.664 363.608 409.684 363.608ZM403.5 351.095C402.86 351.095 402.54 351.095 402.54 351.095C401.938 351.095 401.453 351.095 401.085 351.095C400.716 351.095 400.532 351.095 400.532 351.095C400.532 350.59 400.532 350.173 400.532 349.844C400.532 349.514 400.532 349.101 400.532 348.607C400.92 348.607 401.235 348.607 401.478 348.607C401.798 348.607 402.098 348.607 402.38 348.607C402.661 348.607 403.034 348.607 403.5 348.607C403.5 349.101 403.5 349.514 403.5 349.844C403.5 350.173 403.5 350.59 403.5 351.095ZM408.273 351.095C407.623 351.095 407.298 351.095 407.298 351.095C406.696 351.095 406.211 351.095 405.843 351.095C405.484 351.095 405.304 351.095 405.304 351.095C405.304 350.59 405.304 350.173 405.304 349.844C405.304 349.504 405.304 349.087 405.304 348.592C405.692 348.592 406.003 348.597 406.236 348.607C406.556 348.607 406.856 348.607 407.138 348.607C407.429 348.607 407.807 348.602 408.273 348.592C408.273 349.087 408.273 349.504 408.273 349.844C408.273 350.173 408.273 350.59 408.273 351.095ZM416.444 371.538H414.261V368.919H416.444C417.414 368.919 418.316 368.652 419.15 368.119C419.984 367.585 420.644 366.877 421.129 365.994C421.624 365.112 421.871 364.176 421.871 363.186V353.845H424.345V363.419C424.345 364.845 423.986 366.184 423.268 367.435C422.56 368.686 421.599 369.681 420.387 370.418C419.184 371.165 417.87 371.538 416.444 371.538ZM434.525 363.608H427.701V361.135H435.253C435.777 361.135 436.223 360.975 436.591 360.654C436.97 360.325 437.207 359.917 437.304 359.432C437.401 358.947 437.334 358.482 437.101 358.035L432.881 350.309L435.064 349.116L440.797 359.665C441.029 360.102 441.34 360.431 441.728 360.654C442.125 360.878 442.581 360.989 443.095 360.989H443.401V363.608H443.095C442.271 363.608 441.51 363.414 440.811 363.026C440.122 362.638 439.555 362.1 439.109 361.411L438.716 360.684C438.57 361.236 438.308 361.736 437.93 362.182C437.562 362.619 437.086 362.968 436.504 363.23C435.922 363.482 435.263 363.608 434.525 363.608ZM450.731 355.911H454.252V353.263C454.252 352.681 454.126 352.133 453.874 351.619C453.622 351.095 453.263 350.673 452.797 350.353C452.332 350.033 451.798 349.873 451.197 349.873C450.256 349.873 449.519 350.193 448.985 350.833C448.452 351.463 448.161 352.191 448.112 353.015C448.035 353.937 448.214 354.65 448.651 355.154C449.087 355.659 449.781 355.911 450.731 355.911ZM442.598 361.789C442.743 361.45 443.01 361.183 443.398 360.989H451.211C451.774 360.989 452.283 360.878 452.739 360.654C453.195 360.431 453.559 360.121 453.83 359.723C454.112 359.325 454.252 358.879 454.252 358.385V358.297H450.222C449.097 358.297 448.185 358.089 447.487 357.672C446.788 357.245 446.289 356.653 445.988 355.896C445.697 355.13 445.58 354.209 445.639 353.132C445.677 352.055 445.944 351.08 446.439 350.207C446.934 349.334 447.598 348.65 448.432 348.156C449.267 347.661 450.188 347.414 451.197 347.414C452.244 347.414 453.19 347.671 454.034 348.185C454.878 348.699 455.538 349.397 456.013 350.28C456.488 351.153 456.726 352.099 456.726 353.117V358.385C456.726 359.335 456.474 360.208 455.969 361.004C455.475 361.799 454.805 362.434 453.961 362.91C453.117 363.375 452.201 363.608 451.211 363.608H443.398C443.01 363.414 442.743 363.147 442.598 362.808C442.452 362.468 442.452 362.129 442.598 361.789ZM450.295 343.645C449.655 343.645 449.334 343.645 449.334 343.645C448.733 343.645 448.248 343.645 447.879 343.645C447.511 343.645 447.326 343.645 447.326 343.645C447.326 343.141 447.326 342.724 447.326 342.394C447.326 342.064 447.326 341.652 447.326 341.157C447.714 341.157 448.03 341.157 448.272 341.157C448.592 341.157 448.893 341.157 449.174 341.157C449.456 341.157 449.829 341.157 450.295 341.157C450.295 341.652 450.295 342.064 450.295 342.394C450.295 342.724 450.295 343.141 450.295 343.645ZM455.067 343.645C454.417 343.645 454.092 343.645 454.092 343.645C453.491 343.645 453.006 343.645 452.637 343.645C452.278 343.645 452.099 343.645 452.099 343.645C452.099 343.141 452.099 342.724 452.099 342.394C452.099 342.054 452.099 341.637 452.099 341.142C452.487 341.142 452.797 341.147 453.03 341.157C453.35 341.157 453.651 341.157 453.932 341.157C454.223 341.157 454.602 341.152 455.067 341.142C455.067 341.637 455.067 342.054 455.067 342.394C455.067 342.724 455.067 343.141 455.067 343.645ZM483.9 367.493H481.077V339.818H483.9V367.493ZM528.692 363.608H528.27C527.717 363.608 527.198 363.477 526.713 363.215C526.238 362.953 525.855 362.609 525.564 362.182V363.972C525.515 365.417 525.147 366.736 524.458 367.93C523.779 369.123 522.828 370.064 521.606 370.752C520.384 371.441 518.997 371.785 517.445 371.785H516.397C514.777 371.785 513.351 371.417 512.119 370.68C510.887 369.952 509.937 368.972 509.267 367.74C508.598 366.509 508.263 365.17 508.263 363.725V356.799H510.751V363.434C510.751 364.452 510.97 365.398 511.406 366.271C511.843 367.154 512.488 367.857 513.341 368.381C514.195 368.904 515.214 369.166 516.397 369.166H517.445C518.58 369.166 519.574 368.914 520.427 368.41C521.281 367.905 521.936 367.212 522.392 366.329C522.857 365.456 523.09 364.491 523.09 363.434V353.845H525.564L525.578 358.05C525.578 358.574 525.695 359.064 525.928 359.52C526.16 359.966 526.48 360.325 526.888 360.596C527.305 360.858 527.766 360.989 528.27 360.989H528.692C529.226 360.989 529.696 360.858 530.103 360.596C530.511 360.334 530.826 359.98 531.049 359.534C531.272 359.078 531.384 358.583 531.384 358.05V353.845H533.857V358.05C533.857 358.593 533.969 359.088 534.192 359.534C534.415 359.98 534.73 360.334 535.138 360.596C535.545 360.858 536.016 360.989 536.549 360.989H536.971C537.505 360.989 537.975 360.858 538.383 360.596C538.8 360.334 539.12 359.98 539.343 359.534C539.566 359.078 539.678 358.583 539.678 358.05V353.379H542.151V358.21C542.151 359.199 541.923 360.106 541.467 360.931C541.021 361.755 540.405 362.41 539.619 362.895C538.834 363.37 537.951 363.608 536.971 363.608H536.549C535.686 363.608 534.915 363.39 534.236 362.953C533.566 362.507 533.028 361.891 532.621 361.105C532.213 361.891 531.675 362.507 531.006 362.953C530.346 363.39 529.575 363.608 528.692 363.608ZM543.514 371.538H541.331V368.919H543.514C544.484 368.919 545.386 368.652 546.22 368.119C547.054 367.585 547.714 366.877 548.199 365.994C548.694 365.112 548.941 364.176 548.941 363.186V353.845H551.415V363.419C551.415 364.845 551.056 366.184 550.338 367.435C549.63 368.686 548.669 369.681 547.457 370.418C546.254 371.165 544.94 371.538 543.514 371.538ZM561.493 360.989H564.767V358.123C564.767 357.492 564.66 356.886 564.447 356.304C564.234 355.722 563.884 355.237 563.399 354.849C562.914 354.461 562.279 354.267 561.493 354.267C560.776 354.267 560.174 354.451 559.689 354.82C559.204 355.179 558.84 355.649 558.598 356.231C558.355 356.813 558.234 357.444 558.234 358.123C558.234 358.734 558.346 359.253 558.569 359.68C558.792 360.106 559.141 360.431 559.616 360.654C560.101 360.878 560.727 360.989 561.493 360.989ZM564.054 366.504C564.5 365.708 564.724 364.743 564.724 363.608H561.493C559.592 363.608 558.161 363.128 557.201 362.168C556.241 361.198 555.761 359.849 555.761 358.123C555.761 356.91 556.003 355.824 556.488 354.863C556.983 353.903 557.662 353.156 558.525 352.623C559.398 352.079 560.388 351.808 561.493 351.808C562.619 351.808 563.613 352.075 564.476 352.608C565.349 353.132 566.023 353.874 566.499 354.834C566.984 355.785 567.226 356.881 567.226 358.123V360.989H569.889V363.608H567.212C567.192 365.18 566.828 366.567 566.12 367.77C565.422 368.972 564.481 369.899 563.298 370.549C562.114 371.208 560.809 371.538 559.384 371.538H555.659V368.919H559.384C560.441 368.919 561.372 368.715 562.177 368.308C562.992 367.901 563.618 367.299 564.054 366.504ZM569.099 361.789C569.244 361.45 569.511 361.183 569.899 360.989H570.845C571.378 360.989 571.868 360.858 572.314 360.596C572.77 360.334 573.129 359.98 573.391 359.534C573.653 359.078 573.784 358.583 573.784 358.05V353.845H576.257V358.05C576.257 358.593 576.379 359.088 576.621 359.534C576.864 359.971 577.194 360.325 577.611 360.596C578.028 360.858 578.479 360.989 578.964 360.989H579.386C579.9 360.989 580.361 360.858 580.768 360.596C581.185 360.334 581.505 359.98 581.728 359.534C581.961 359.088 582.078 358.593 582.078 358.05V353.845H584.551V358.05C584.551 358.593 584.663 359.088 584.886 359.534C585.119 359.98 585.439 360.334 585.846 360.596C586.254 360.858 586.719 360.989 587.243 360.989H587.665C588.189 360.989 588.654 360.858 589.062 360.596C589.479 360.334 589.799 359.98 590.022 359.534C590.245 359.088 590.357 358.593 590.357 358.05V353.379H592.845V358.21C592.845 359.199 592.617 360.106 592.161 360.931C591.715 361.755 591.094 362.41 590.299 362.895C589.513 363.37 588.635 363.608 587.665 363.608H587.243C586.36 363.608 585.584 363.385 584.915 362.939C584.246 362.493 583.712 361.882 583.314 361.105C582.917 361.882 582.378 362.493 581.699 362.939C581.03 363.385 580.259 363.608 579.386 363.608H578.964C578.1 363.608 577.324 363.38 576.636 362.924C575.947 362.468 575.404 361.857 575.006 361.091C574.599 361.867 574.031 362.483 573.304 362.939C572.586 363.385 571.766 363.608 570.845 363.608H569.899C569.511 363.414 569.244 363.147 569.099 362.808C568.953 362.468 568.953 362.129 569.099 361.789ZM613.197 371.785H612.15C610.52 371.785 609.089 371.417 607.857 370.68C606.625 369.942 605.675 368.958 605.006 367.726C604.346 366.494 604.016 365.16 604.016 363.725V356.799H606.504V363.434C606.504 364.452 606.722 365.398 607.159 366.271C607.595 367.154 608.241 367.857 609.094 368.381C609.948 368.904 610.966 369.166 612.15 369.166H613.197C614.371 369.166 615.385 368.904 616.238 368.381C617.092 367.857 617.737 367.154 618.174 366.271C618.62 365.398 618.843 364.452 618.843 363.434V354.15H621.316L621.331 358.064C621.331 358.598 621.462 359.093 621.724 359.549C621.986 359.995 622.335 360.349 622.772 360.611C623.218 360.873 623.712 361.004 624.256 361.004H624.925V363.623H624.256C623.654 363.623 623.101 363.477 622.597 363.186C622.092 362.895 621.671 362.502 621.331 362.008V363.783C621.312 365.209 620.967 366.533 620.298 367.755C619.638 368.977 618.693 369.952 617.461 370.68C616.229 371.417 614.808 371.785 613.197 371.785ZM613.459 353.19C612.8 353.19 612.47 353.19 612.47 353.19C611.849 353.19 611.349 353.19 610.971 353.19C610.593 353.19 610.404 353.19 610.404 353.19C610.404 352.676 610.404 352.249 610.404 351.91C610.404 351.57 610.404 351.148 610.404 350.644C610.801 350.644 611.126 350.644 611.379 350.644C611.699 350.644 612.004 350.644 612.295 350.644C612.596 350.644 612.984 350.644 613.459 350.644C613.459 351.148 613.459 351.57 613.459 351.91C613.459 352.249 613.459 352.676 613.459 353.19ZM624.117 361.789C624.262 361.45 624.529 361.183 624.917 360.989H629.544C630.078 360.989 630.568 360.858 631.014 360.596C631.46 360.334 631.814 359.98 632.076 359.534C632.348 359.078 632.483 358.583 632.483 358.05V353.379H634.942V358.341C634.942 359.301 634.7 360.184 634.215 360.989C633.73 361.794 633.075 362.434 632.251 362.91C631.426 363.375 630.524 363.608 629.544 363.608H624.917C624.529 363.414 624.262 363.147 624.117 362.808C623.971 362.468 623.971 362.129 624.117 361.789ZM628.7 370.098C628.303 370.098 627.983 370.098 627.74 370.098C627.527 370.098 627.323 370.098 627.129 370.098C627.012 370.098 626.886 370.098 626.751 370.098C626.489 370.098 626.149 370.098 625.732 370.098C625.732 369.593 625.732 369.176 625.732 368.846C625.732 368.507 625.732 368.09 625.732 367.595C626.12 367.595 626.435 367.6 626.678 367.61C626.998 367.61 627.299 367.61 627.58 367.61C627.861 367.61 628.235 367.605 628.7 367.595C628.7 368.09 628.7 368.507 628.7 368.846C628.7 369.176 628.7 369.593 628.7 370.098ZM633.473 370.083C633.065 370.083 632.74 370.083 632.498 370.083C632.197 370.083 631.901 370.083 631.61 370.083C631.329 370.083 630.96 370.083 630.505 370.083C630.505 369.588 630.505 369.176 630.505 368.846C630.505 368.516 630.505 368.099 630.505 367.595C630.893 367.595 631.203 367.595 631.436 367.595C631.756 367.595 632.057 367.595 632.338 367.595C632.629 367.595 633.007 367.595 633.473 367.595C633.473 368.099 633.473 368.516 633.473 368.846C633.473 369.176 633.473 369.588 633.473 370.083ZM631.087 374.492C630.689 374.492 630.369 374.492 630.126 374.492C629.816 374.492 629.515 374.492 629.224 374.492C628.943 374.492 628.574 374.492 628.118 374.492C628.118 373.997 628.118 373.585 628.118 373.255C628.118 372.925 628.118 372.508 628.118 372.004C628.506 372.004 628.822 372.004 629.064 372.004C629.374 372.004 629.67 372.004 629.952 372.004C630.243 372.004 630.621 372.004 631.087 372.004C631.087 372.508 631.087 372.925 631.087 373.255C631.087 373.585 631.087 373.997 631.087 374.492ZM639.691 363.608V342.787H642.179V363.608H639.691ZM652.549 371.538H651.516V368.919H652.549C653.519 368.919 654.421 368.652 655.256 368.119C656.09 367.585 656.749 366.877 657.234 365.994C657.729 365.112 657.977 364.176 657.977 363.186V353.845H660.465V363.477C660.465 364.893 660.106 366.222 659.388 367.464C658.67 368.706 657.705 369.695 656.492 370.432C655.28 371.169 653.966 371.538 652.549 371.538ZM665.193 363.608V342.787H667.681V363.608H665.193ZM681.964 362.924C681.246 363.38 680.446 363.608 679.563 363.608H671.444V361.135H679.563C680.135 361.135 680.616 360.95 681.004 360.582C681.392 360.203 681.61 359.747 681.658 359.214C681.707 358.68 681.566 358.195 681.236 357.759L675.766 350.571L677.73 349.072L683.215 356.275C683.768 357.012 684.074 357.812 684.132 358.676C684.19 359.529 684.025 360.334 683.637 361.091C683.249 361.848 682.691 362.459 681.964 362.924ZM706.701 362.924C705.983 363.38 705.164 363.608 704.242 363.608H693.679C692.699 363.608 691.792 363.375 690.958 362.91C690.133 362.434 689.478 361.794 688.993 360.989C688.508 360.184 688.266 359.301 688.266 358.341V353.379H690.754V358.05C690.754 358.583 690.885 359.078 691.147 359.534C691.409 359.98 691.758 360.334 692.194 360.596C692.641 360.858 693.135 360.989 693.679 360.989H704.242C704.776 360.989 705.266 360.858 705.712 360.596C706.168 360.334 706.527 359.98 706.788 359.534C707.05 359.078 707.181 358.583 707.181 358.05V353.845H709.64V358.05C709.64 358.583 709.771 359.078 710.033 359.534C710.305 359.98 710.664 360.334 711.11 360.596C711.556 360.858 712.041 360.989 712.565 360.989H713.249V363.608H712.565C711.643 363.608 710.824 363.38 710.106 362.924C709.388 362.468 708.821 361.857 708.404 361.091C707.996 361.857 707.429 362.468 706.701 362.924ZM698.058 351.095C697.418 351.095 697.098 351.095 697.098 351.095C696.497 351.095 696.012 351.095 695.643 351.095C695.274 351.095 695.09 351.095 695.09 351.095C695.09 350.59 695.09 350.173 695.09 349.844C695.09 349.514 695.09 349.101 695.09 348.607C695.478 348.607 695.793 348.607 696.036 348.607C696.356 348.607 696.657 348.607 696.938 348.607C697.219 348.607 697.593 348.607 698.058 348.607C698.058 349.101 698.058 349.514 698.058 349.844C698.058 350.173 698.058 350.59 698.058 351.095ZM702.831 351.095C702.181 351.095 701.856 351.095 701.856 351.095C701.254 351.095 700.769 351.095 700.401 351.095C700.042 351.095 699.863 351.095 699.863 351.095C699.863 350.59 699.863 350.173 699.863 349.844C699.863 349.504 699.863 349.087 699.863 348.592C700.251 348.592 700.561 348.597 700.794 348.607C701.114 348.607 701.415 348.607 701.696 348.607C701.987 348.607 702.365 348.602 702.831 348.592C702.831 349.087 702.831 349.504 702.831 349.844C702.831 350.173 702.831 350.59 702.831 351.095ZM712.443 361.789C712.589 361.45 712.856 361.183 713.244 360.989H714.189C714.723 360.989 715.213 360.858 715.659 360.596C716.115 360.334 716.474 359.98 716.736 359.534C716.998 359.078 717.129 358.583 717.129 358.05V353.845H719.602V358.05C719.602 358.593 719.723 359.088 719.966 359.534C720.208 359.971 720.538 360.325 720.955 360.596C721.372 360.858 721.823 360.989 722.308 360.989H722.73C723.245 360.989 723.705 360.858 724.113 360.596C724.53 360.334 724.85 359.98 725.073 359.534C725.306 359.088 725.422 358.593 725.422 358.05V353.845H727.896V358.05C727.896 358.593 728.007 359.088 728.23 359.534C728.463 359.98 728.783 360.334 729.191 360.596C729.598 360.858 730.064 360.989 730.588 360.989H731.01C731.533 360.989 731.999 360.858 732.406 360.596C732.824 360.334 733.144 359.98 733.367 359.534C733.59 359.088 733.701 358.593 733.701 358.05V353.379H736.19V358.21C736.19 359.199 735.962 360.106 735.506 360.931C735.059 361.755 734.439 362.41 733.643 362.895C732.858 363.37 731.98 363.608 731.01 363.608H730.588C729.705 363.608 728.929 363.385 728.26 362.939C727.59 362.493 727.057 361.882 726.659 361.105C726.261 361.882 725.723 362.493 725.044 362.939C724.375 363.385 723.603 363.608 722.73 363.608H722.308C721.445 363.608 720.669 363.38 719.98 362.924C719.292 362.468 718.749 361.857 718.351 361.091C717.943 361.867 717.376 362.483 716.648 362.939C715.931 363.385 715.111 363.608 714.189 363.608H713.244C712.856 363.414 712.589 363.147 712.443 362.808C712.298 362.468 712.298 362.129 712.443 361.789ZM746.268 360.989H749.542V358.123C749.542 357.492 749.435 356.886 749.221 356.304C749.008 355.722 748.659 355.237 748.174 354.849C747.689 354.461 747.053 354.267 746.268 354.267C745.55 354.267 744.948 354.451 744.463 354.82C743.978 355.179 743.615 355.649 743.372 356.231C743.13 356.813 743.008 357.444 743.008 358.123C743.008 358.734 743.12 359.253 743.343 359.68C743.566 360.106 743.915 360.431 744.391 360.654C744.876 360.878 745.501 360.989 746.268 360.989ZM752.001 358.123V363.419C752.001 365.02 751.651 366.436 750.953 367.668C750.254 368.9 749.309 369.85 748.116 370.52C746.922 371.199 745.603 371.538 744.158 371.538H740.433V368.919H744.158C745.215 368.919 746.146 368.715 746.952 368.308C747.766 367.901 748.392 367.299 748.829 366.504C749.275 365.708 749.498 364.743 749.498 363.608H746.268C744.366 363.608 742.936 363.128 741.975 362.168C741.015 361.198 740.535 359.849 740.535 358.123C740.535 356.91 740.777 355.824 741.262 354.863C741.757 353.903 742.436 353.156 743.299 352.623C744.172 352.079 745.162 351.808 746.268 351.808C747.393 351.808 748.387 352.075 749.251 352.608C750.124 353.132 750.798 353.874 751.273 354.834C751.758 355.785 752.001 356.881 752.001 358.123ZM765.866 362.924C765.148 363.38 764.348 363.608 763.465 363.608H755.346V361.135H763.465C764.038 361.135 764.518 360.95 764.906 360.582C765.294 360.203 765.512 359.747 765.561 359.214C765.609 358.68 765.468 358.195 765.139 357.759L759.668 350.571L761.632 349.072L767.117 356.275C767.67 357.012 767.976 357.812 768.034 358.676C768.092 359.529 767.927 360.334 767.539 361.091C767.151 361.848 766.594 362.459 765.866 362.924Z" fill="white"/>
<g clip-path="url(#clip0_58_8)" filter="url(#filter0_d_58_8)">
<path d="M803.258 384.264C802.687 384.264 802.258 383.962 802.225 383.391C801.929 378.206 802.239 351.639 802.334 344.16C802.348 343.066 803.238 342.198 804.332 342.198H819.027C820.132 342.198 821.027 341.303 821.027 340.198V300.892C821.027 300.402 821.207 299.93 821.532 299.564L854.868 262.005C856.089 260.629 858.364 261.493 858.364 263.332V340.198C858.364 341.303 859.259 342.198 860.364 342.198H931.036C932.141 342.198 933.036 341.303 933.036 340.198V260.066C933.036 258.962 932.141 258.066 931.036 258.066H806.809C805.084 258.066 804.168 256.029 805.313 254.739L839.099 216.672C839.478 216.245 840.023 216 840.595 216H950.805C951.377 216 951.921 216.245 952.301 216.672L969.868 236.465C970.193 236.831 970.372 237.303 970.372 237.793V362.472C970.372 362.961 970.193 363.434 969.868 363.799L952.301 383.592C951.921 384.02 951.377 384.264 950.805 384.264H803.258Z" fill="white"/>
</g>
<defs>
<filter id="filter0_d_58_8" x="786.36" y="201" width="200.272" height="200.272" filterUnits="userSpaceOnUse" color-interpolation-filters="sRGB">
<feFlood flood-opacity="0" result="BackgroundImageFix"/>
<feColorMatrix in="SourceAlpha" type="matrix" values="0 0 0 0 0 0 0 0 0 0 0 0 0 0 0 0 0 0 127 0" result="hardAlpha"/>
<feOffset dy="1"/>
<feGaussianBlur stdDeviation="8"/>
<feComposite in2="hardAlpha" operator="out"/>
<feColorMatrix type="matrix" values="0 0 0 0 0 0 0 0 0 0.152941 0 0 0 0 0.0313726 0 0 0 0.25 0"/>
<feBlend mode="normal" in2="BackgroundImageFix" result="effect1_dropShadow_58_8"/>
<feBlend mode="normal" in="SourceGraphic" in2="effect1_dropShadow_58_8" result="shape"/>
</filter>
<clipPath id="clip0_58_8">
<rect width="168.272" height="168.272" fill="white" transform="translate(802.36 216)"/>
</clipPath>
</defs>
</svg>
