<svg width="1200" height="600" viewBox="0 0 1200 600" fill="none" xmlns="http://www.w3.org/2000/svg">
<rect width="1200" height="600" rx="48" fill="#5F6FD0"/>
<g clip-path="url(#clip0_37_43)" filter="url(#filter0_d_37_43)">
<path d="M224.899 384.264C224.327 384.264 223.898 383.962 223.866 383.391C223.569 378.206 223.879 351.639 223.974 344.16C223.988 343.066 224.878 342.198 225.972 342.198H240.668C241.772 342.198 242.668 341.303 242.668 340.198V300.892C242.668 300.402 242.847 299.93 243.172 299.564L276.508 262.005C277.729 260.629 280.004 261.493 280.004 263.332V340.198C280.004 341.303 280.899 342.198 282.004 342.198H352.676C353.781 342.198 354.676 341.303 354.676 340.198V260.066C354.676 258.962 353.781 258.066 352.676 258.066H228.449C226.724 258.066 225.808 256.029 226.953 254.739L260.739 216.672C261.118 216.245 261.663 216 262.235 216H372.445C373.017 216 373.561 216.245 373.941 216.672L391.508 236.465C391.833 236.831 392.012 237.303 392.012 237.793V362.472C392.012 362.961 391.833 363.434 391.508 363.799L373.941 383.592C373.561 384.02 373.017 384.264 372.445 384.264H224.899Z" fill="white"/>
</g>
<path d="M446.896 296.164H429.874V248.854H446.443C451.103 248.854 455.201 249.868 458.74 251.896C462.278 253.88 465.039 256.663 467.024 260.244C469.052 263.782 470.066 267.903 470.066 272.606C470.066 277.223 469.073 281.322 467.088 284.903C465.147 288.441 462.429 291.202 458.934 293.187C455.482 295.172 451.469 296.164 446.896 296.164ZM438.159 252.672V292.41L434.211 288.527H446.119C449.269 288.527 451.987 287.88 454.274 286.586C456.561 285.291 458.308 283.457 459.516 281.084C460.724 278.711 461.328 275.885 461.328 272.606C461.328 269.241 460.703 266.371 459.451 263.998C458.2 261.582 456.41 259.727 454.08 258.432C451.75 257.138 448.945 256.491 445.666 256.491H434.211L438.159 252.672ZM476.617 296.164V264.192H484.513V296.164H476.617ZM480.501 257.785C479.163 257.785 478.02 257.332 477.07 256.426C476.164 255.477 475.711 254.333 475.711 252.996C475.711 251.658 476.164 250.536 477.07 249.63C478.02 248.724 479.163 248.271 480.501 248.271C481.838 248.271 482.96 248.724 483.866 249.63C484.815 250.536 485.29 251.658 485.29 252.996C485.29 254.333 484.815 255.477 483.866 256.426C482.96 257.332 481.838 257.785 480.501 257.785ZM490.212 286.456H497.719C497.762 287.837 498.28 288.937 499.272 289.757C500.265 290.577 501.646 290.986 503.415 290.986C505.313 290.986 506.737 290.641 507.686 289.951C508.678 289.261 509.175 288.333 509.175 287.168C509.175 286.391 508.916 285.701 508.398 285.097C507.88 284.493 506.909 284.04 505.486 283.738L499.725 282.379C496.835 281.732 494.677 280.696 493.253 279.272C491.873 277.805 491.182 275.799 491.182 273.253C491.182 271.182 491.722 269.392 492.8 267.881C493.922 266.371 495.432 265.228 497.331 264.451C499.229 263.631 501.408 263.222 503.868 263.222C506.241 263.222 508.333 263.653 510.145 264.516C511.958 265.379 513.36 266.587 514.352 268.14C515.388 269.694 515.927 271.506 515.97 273.577H508.463C508.463 272.196 508.031 271.117 507.168 270.341C506.305 269.521 505.097 269.111 503.544 269.111C501.991 269.111 500.783 269.456 499.92 270.147C499.057 270.837 498.625 271.765 498.625 272.93C498.625 274.699 500.006 275.907 502.767 276.554L508.527 277.913C511.202 278.517 513.209 279.488 514.546 280.825C515.927 282.163 516.617 284.061 516.617 286.521C516.617 288.678 516.056 290.555 514.935 292.151C513.813 293.705 512.238 294.913 510.21 295.776C508.182 296.596 505.852 297.005 503.22 297.005C499.251 297.005 496.08 296.035 493.707 294.093C491.377 292.151 490.212 289.606 490.212 286.456ZM519.458 264.192H539.651V270.794H519.458V264.192ZM533.502 296.164H525.606V254.226H533.502V296.164ZM564.687 264.063V271.376H561.775C558.884 271.376 556.619 272.153 554.979 273.706C553.34 275.216 552.52 277.525 552.52 280.631V296.164H544.624V264.257H552.067L552.714 270.859H551.937C552.369 268.744 553.383 267.018 554.979 265.681C556.576 264.343 558.647 263.675 561.192 263.675C561.753 263.675 562.314 263.696 562.875 263.739C563.436 263.782 564.04 263.89 564.687 264.063ZM567.08 280.114C567.08 276.791 567.814 273.879 569.281 271.376C570.748 268.831 572.776 266.846 575.364 265.422C577.953 263.998 580.887 263.286 584.166 263.286C587.489 263.286 590.423 263.998 592.968 265.422C595.557 266.846 597.585 268.831 599.052 271.376C600.519 273.879 601.252 276.791 601.252 280.114C601.252 283.436 600.519 286.37 599.052 288.915C597.585 291.418 595.557 293.381 592.968 294.805C590.423 296.229 587.489 296.941 584.166 296.941C580.887 296.941 577.953 296.229 575.364 294.805C572.776 293.381 570.748 291.418 569.281 288.915C567.814 286.37 567.08 283.436 567.08 280.114ZM574.976 280.114C574.976 282.055 575.364 283.759 576.141 285.226C576.961 286.693 578.04 287.837 579.377 288.657C580.758 289.476 582.354 289.886 584.166 289.886C585.979 289.886 587.575 289.476 588.956 288.657C590.336 287.837 591.415 286.693 592.192 285.226C592.968 283.759 593.357 282.055 593.357 280.114C593.357 278.129 592.968 276.424 592.192 275.001C591.415 273.534 590.336 272.39 588.956 271.57C587.575 270.751 585.979 270.341 584.166 270.341C582.354 270.341 580.758 270.751 579.377 271.57C578.04 272.39 576.961 273.534 576.141 275.001C575.364 276.424 574.976 278.129 574.976 280.114ZM634.404 248.854V296.164H626.12V248.854H634.404ZM655.374 256.491H626.767V248.854H655.374V256.491ZM652.008 276.813H626.638V269.37H652.008V276.813ZM657.334 280.114C657.334 276.791 658.068 273.879 659.535 271.376C661.002 268.831 663.03 266.846 665.619 265.422C668.207 263.998 671.141 263.286 674.42 263.286C677.743 263.286 680.677 263.998 683.222 265.422C685.811 266.846 687.839 268.831 689.306 271.376C690.773 273.879 691.507 276.791 691.507 280.114C691.507 283.436 690.773 286.37 689.306 288.915C687.839 291.418 685.811 293.381 683.222 294.805C680.677 296.229 677.743 296.941 674.42 296.941C671.141 296.941 668.207 296.229 665.619 294.805C663.03 293.381 661.002 291.418 659.535 288.915C658.068 286.37 657.334 283.436 657.334 280.114ZM665.23 280.114C665.23 282.055 665.619 283.759 666.395 285.226C667.215 286.693 668.294 287.837 669.631 288.657C671.012 289.476 672.608 289.886 674.42 289.886C676.233 289.886 677.829 289.476 679.21 288.657C680.59 287.837 681.669 286.693 682.446 285.226C683.222 283.759 683.611 282.055 683.611 280.114C683.611 278.129 683.222 276.424 682.446 275.001C681.669 273.534 680.59 272.39 679.21 271.57C677.829 270.751 676.233 270.341 674.42 270.341C672.608 270.341 671.012 270.751 669.631 271.57C668.294 272.39 667.215 273.534 666.395 275.001C665.619 276.424 665.23 278.129 665.23 280.114ZM718.688 264.192H726.584V296.164H719.27L718.688 291.893C717.739 293.403 716.315 294.632 714.416 295.582C712.518 296.531 710.49 297.005 708.333 297.005C704.665 297.005 701.796 295.84 699.725 293.511C697.654 291.181 696.618 288.074 696.618 284.191V264.192H704.514V281.408C704.514 284.428 705.097 286.607 706.262 287.945C707.427 289.282 709.109 289.951 711.31 289.951C713.812 289.951 715.668 289.217 716.876 287.75C718.084 286.24 718.688 283.975 718.688 280.955V264.192ZM742.635 296.164H734.739V264.192H742.052L742.7 268.334C743.692 266.738 745.094 265.487 746.906 264.581C748.762 263.675 750.768 263.222 752.925 263.222C756.938 263.222 759.958 264.408 761.986 266.781C764.057 269.154 765.093 272.39 765.093 276.489V296.164H757.197V278.366C757.197 275.691 756.593 273.706 755.385 272.412C754.177 271.074 752.537 270.405 750.466 270.405C748.007 270.405 746.087 271.182 744.706 272.735C743.325 274.289 742.635 276.36 742.635 278.949V296.164ZM785.989 297.005C782.882 297.005 780.207 296.315 777.963 294.934C775.763 293.511 774.037 291.547 772.786 289.045C771.578 286.542 770.974 283.63 770.974 280.308C770.974 276.985 771.578 274.051 772.786 271.506C774.037 268.917 775.828 266.889 778.158 265.422C780.487 263.955 783.249 263.222 786.442 263.222C788.685 263.222 790.735 263.675 792.59 264.581C794.445 265.444 795.869 266.673 796.862 268.27V248.012H804.693V296.164H797.444L796.926 291.181C795.977 292.993 794.51 294.417 792.525 295.452C790.584 296.488 788.405 297.005 785.989 297.005ZM787.736 289.757C789.591 289.757 791.188 289.368 792.525 288.592C793.863 287.772 794.898 286.629 795.632 285.162C796.409 283.652 796.797 281.947 796.797 280.049C796.797 278.107 796.409 276.424 795.632 275.001C794.898 273.534 793.863 272.39 792.525 271.57C791.188 270.708 789.591 270.276 787.736 270.276C785.924 270.276 784.349 270.708 783.012 271.57C781.674 272.39 780.638 273.534 779.905 275.001C779.215 276.468 778.869 278.15 778.869 280.049C778.869 281.947 779.215 283.63 779.905 285.097C780.638 286.564 781.674 287.707 783.012 288.527C784.349 289.347 785.924 289.757 787.736 289.757ZM822.435 297.005C819.07 297.005 816.395 296.099 814.41 294.287C812.468 292.432 811.497 290.016 811.497 287.039C811.497 284.105 812.511 281.775 814.539 280.049C816.61 278.28 819.544 277.244 823.341 276.942L832.92 276.166V275.454C832.92 273.987 832.639 272.822 832.078 271.959C831.561 271.053 830.806 270.406 829.813 270.017C828.821 269.586 827.656 269.37 826.318 269.37C823.988 269.37 822.198 269.845 820.947 270.794C819.695 271.7 819.07 272.994 819.07 274.677H812.339C812.339 272.347 812.921 270.341 814.086 268.658C815.294 266.932 816.977 265.595 819.134 264.645C821.335 263.696 823.859 263.222 826.707 263.222C829.597 263.222 832.078 263.739 834.149 264.775C836.22 265.767 837.817 267.277 838.939 269.305C840.06 271.29 840.621 273.771 840.621 276.748V296.164H833.696L833.114 291.44C832.424 293.079 831.086 294.417 829.101 295.452C827.16 296.488 824.938 297.005 822.435 297.005ZM824.959 291.051C827.419 291.051 829.36 290.361 830.784 288.98C832.251 287.599 832.984 285.679 832.984 283.22V281.537L826.318 282.055C823.859 282.271 822.111 282.789 821.076 283.608C820.04 284.385 819.523 285.421 819.523 286.715C819.523 288.139 819.997 289.217 820.947 289.951C821.896 290.684 823.233 291.051 824.959 291.051ZM844.765 264.192H864.957V270.794H844.765V264.192ZM858.809 296.164H850.913V254.226H858.809V296.164ZM869.93 296.164V264.192H877.826V296.164H869.93ZM873.814 257.785C872.476 257.785 871.333 257.332 870.384 256.426C869.477 255.477 869.024 254.333 869.024 252.996C869.024 251.658 869.477 250.536 870.384 249.63C871.333 248.724 872.476 248.271 873.814 248.271C875.151 248.271 876.273 248.724 877.179 249.63C878.128 250.536 878.603 251.658 878.603 252.996C878.603 254.333 878.128 255.477 877.179 256.426C876.273 257.332 875.151 257.785 873.814 257.785ZM884.107 280.114C884.107 276.791 884.841 273.879 886.308 271.376C887.775 268.831 889.803 266.846 892.391 265.422C894.98 263.998 897.914 263.286 901.193 263.286C904.516 263.286 907.45 263.998 909.995 265.422C912.584 266.846 914.612 268.831 916.079 271.376C917.546 273.879 918.279 276.791 918.279 280.114C918.279 283.436 917.546 286.37 916.079 288.915C914.612 291.418 912.584 293.381 909.995 294.805C907.45 296.229 904.516 296.941 901.193 296.941C897.914 296.941 894.98 296.229 892.391 294.805C889.803 293.381 887.775 291.418 886.308 288.915C884.841 286.37 884.107 283.436 884.107 280.114ZM892.003 280.114C892.003 282.055 892.391 283.759 893.168 285.226C893.988 286.693 895.066 287.837 896.404 288.657C897.785 289.476 899.381 289.886 901.193 289.886C903.005 289.886 904.602 289.476 905.983 288.657C907.363 287.837 908.442 286.693 909.219 285.226C909.995 283.759 910.384 282.055 910.384 280.114C910.384 278.129 909.995 276.424 909.219 275.001C908.442 273.534 907.363 272.39 905.983 271.57C904.602 270.751 903.005 270.341 901.193 270.341C899.381 270.341 897.785 270.751 896.404 271.57C895.066 272.39 893.988 273.534 893.168 275.001C892.391 276.424 892.003 278.129 892.003 280.114ZM932.434 296.164H924.538V264.192H931.851L932.499 268.334C933.491 266.738 934.893 265.487 936.705 264.581C938.561 263.675 940.567 263.222 942.724 263.222C946.737 263.222 949.757 264.408 951.785 266.781C953.856 269.154 954.892 272.39 954.892 276.489V296.164H946.996V278.366C946.996 275.691 946.392 273.706 945.184 272.412C943.976 271.074 942.336 270.405 940.265 270.405C937.806 270.405 935.886 271.182 934.505 272.735C933.124 274.289 932.434 276.36 932.434 278.949V296.164Z" fill="white"/>
<path d="M434.47 339.974V362.108H432.14V339.974H434.47ZM425.02 341.074V338.938H441.621V341.074H425.02ZM450.602 346.252V348.258H449.373C447.927 348.258 446.773 348.7 445.91 349.585C445.069 350.469 444.648 351.667 444.648 353.177V362.108H442.415V346.446H444.519L444.713 349.52H444.486C444.702 348.506 445.23 347.686 446.072 347.061C446.913 346.414 447.938 346.09 449.146 346.09C449.383 346.09 449.621 346.101 449.858 346.122C450.095 346.144 450.343 346.187 450.602 346.252ZM464.573 346.446H466.806V362.108H464.864L464.573 359.455C464.141 360.361 463.419 361.094 462.405 361.655C461.412 362.216 460.301 362.496 459.072 362.496C457.238 362.496 455.825 361.914 454.833 360.749C453.862 359.584 453.376 358.052 453.376 356.154V346.414H455.642V355.442C455.642 357.297 456.019 358.602 456.774 359.358C457.551 360.113 458.554 360.49 459.784 360.49C461.294 360.49 462.47 360.005 463.311 359.034C464.152 358.042 464.573 356.618 464.573 354.762V346.446ZM473.787 362.108H471.554V338.518H473.787V362.108ZM478.859 346.446L484.749 362.432L483.099 363.726L476.497 346.446H478.859ZM476.95 368.936V367.092H478.665C479.118 367.092 479.56 367.048 479.992 366.962C480.445 366.897 480.855 366.714 481.222 366.412C481.61 366.11 481.923 365.603 482.16 364.891L488.859 346.446H491.156L483.972 365.7C483.519 366.93 482.904 367.814 482.128 368.354C481.373 368.893 480.434 369.163 479.312 369.163C478.859 369.163 478.439 369.141 478.05 369.098C477.662 369.076 477.295 369.022 476.95 368.936ZM523.874 350.523C523.874 352.875 523.399 354.946 522.45 356.736C521.522 358.527 520.228 359.94 518.567 360.976C516.905 361.99 514.996 362.496 512.839 362.496C510.682 362.496 508.762 361.99 507.079 360.976C505.418 359.94 504.123 358.527 503.196 356.736C502.268 354.946 501.804 352.875 501.804 350.523C501.804 348.172 502.268 346.101 503.196 344.31C504.145 342.498 505.45 341.085 507.111 340.071C508.772 339.035 510.682 338.518 512.839 338.518C515.018 338.518 516.927 339.035 518.567 340.071C520.228 341.085 521.522 342.498 522.45 344.31C523.399 346.101 523.874 348.172 523.874 350.523ZM521.479 350.523C521.479 348.582 521.112 346.888 520.379 345.443C519.645 343.976 518.631 342.832 517.337 342.013C516.064 341.193 514.565 340.783 512.839 340.783C511.135 340.783 509.635 341.193 508.341 342.013C507.046 342.832 506.032 343.976 505.299 345.443C504.587 346.888 504.231 348.582 504.231 350.523C504.231 352.443 504.587 354.137 505.299 355.604C506.032 357.071 507.046 358.214 508.341 359.034C509.635 359.854 511.135 360.264 512.839 360.264C514.565 360.264 516.064 359.854 517.337 359.034C518.631 358.214 519.645 357.071 520.379 355.604C521.112 354.137 521.479 352.443 521.479 350.523ZM527.613 368.936V346.446H529.555L529.781 349.617C530.342 348.409 531.14 347.514 532.176 346.931C533.233 346.327 534.409 346.025 535.703 346.025C537.213 346.025 538.508 346.381 539.586 347.093C540.665 347.805 541.495 348.776 542.078 350.006C542.66 351.235 542.952 352.637 542.952 354.212C542.952 355.787 542.66 357.2 542.078 358.451C541.517 359.703 540.697 360.695 539.619 361.429C538.561 362.141 537.256 362.496 535.703 362.496C534.365 362.496 533.19 362.216 532.176 361.655C531.162 361.073 530.385 360.22 529.846 359.099V368.936H527.613ZM529.878 354.277C529.878 355.464 530.094 356.531 530.525 357.481C530.957 358.408 531.572 359.142 532.37 359.681C533.19 360.22 534.171 360.49 535.315 360.49C536.458 360.49 537.429 360.22 538.227 359.681C539.025 359.142 539.629 358.408 540.039 357.481C540.471 356.531 540.686 355.464 540.686 354.277C540.686 353.069 540.471 352.001 540.039 351.073C539.629 350.124 539.025 349.391 538.227 348.873C537.429 348.334 536.458 348.064 535.315 348.064C534.171 348.064 533.19 348.334 532.37 348.873C531.572 349.391 530.957 350.124 530.525 351.073C530.094 352.001 529.878 353.069 529.878 354.277ZM553.08 362.496C551.57 362.496 550.232 362.151 549.067 361.461C547.924 360.771 547.028 359.811 546.381 358.581C545.734 357.351 545.41 355.917 545.41 354.277C545.41 352.659 545.723 351.235 546.349 350.006C546.996 348.754 547.881 347.783 549.002 347.093C550.124 346.381 551.429 346.025 552.918 346.025C554.342 346.025 555.582 346.338 556.639 346.964C557.718 347.589 558.549 348.463 559.131 349.585C559.735 350.685 560.037 351.979 560.037 353.468V354.568H546.64L546.705 352.95H557.804C557.804 351.44 557.351 350.232 556.445 349.326C555.561 348.398 554.385 347.934 552.918 347.934C551.839 347.934 550.89 348.183 550.07 348.679C549.272 349.175 548.657 349.887 548.226 350.815C547.794 351.721 547.579 352.799 547.579 354.051C547.579 356.122 548.053 357.729 549.002 358.872C549.973 360.016 551.343 360.587 553.112 360.587C554.385 360.587 555.431 360.318 556.251 359.778C557.071 359.239 557.621 358.451 557.901 357.416H560.037C559.627 359.056 558.829 360.318 557.643 361.202C556.456 362.065 554.935 362.496 553.08 362.496ZM565.84 362.108H563.607V346.446H565.549L565.872 349.164C566.39 348.172 567.124 347.406 568.073 346.867C569.044 346.306 570.101 346.025 571.244 346.025C573.401 346.025 574.955 346.619 575.904 347.805C576.853 348.992 577.328 350.566 577.328 352.53V362.108H575.095V353.015C575.095 351.181 574.707 349.898 573.93 349.164C573.175 348.431 572.15 348.064 570.856 348.064C569.259 348.064 568.019 348.603 567.134 349.682C566.271 350.739 565.84 352.152 565.84 353.921V362.108ZM589.847 344.957C589.847 343.663 590.17 342.541 590.818 341.592C591.465 340.621 592.371 339.866 593.536 339.327C594.701 338.787 596.06 338.518 597.613 338.518C599.015 338.518 600.234 338.766 601.27 339.262C602.327 339.758 603.168 340.47 603.794 341.398C604.42 342.325 604.786 343.436 604.894 344.731H602.532C602.402 343.436 601.906 342.433 601.043 341.721C600.18 340.988 599.026 340.621 597.581 340.621C595.963 340.621 594.658 341.009 593.665 341.786C592.673 342.563 592.177 343.609 592.177 344.925C592.177 345.939 592.479 346.78 593.083 347.449C593.687 348.096 594.593 348.571 595.801 348.873L599.781 349.844C601.593 350.275 602.963 351.009 603.891 352.044C604.819 353.058 605.283 354.353 605.283 355.927C605.283 357.243 604.959 358.398 604.312 359.39C603.665 360.382 602.748 361.148 601.561 361.687C600.375 362.227 598.983 362.496 597.387 362.496C595.898 362.496 594.571 362.248 593.406 361.752C592.263 361.256 591.357 360.544 590.688 359.616C590.041 358.689 589.663 357.599 589.556 356.348H591.95C592.015 357.578 592.543 358.559 593.536 359.293C594.528 360.005 595.812 360.361 597.387 360.361C599.091 360.361 600.439 359.972 601.432 359.196C602.446 358.419 602.953 357.373 602.953 356.057C602.953 355 602.651 354.148 602.047 353.5C601.464 352.832 600.547 352.346 599.296 352.044L595.38 351.073C593.568 350.642 592.188 349.919 591.238 348.905C590.311 347.87 589.847 346.554 589.847 344.957ZM607.887 354.277C607.887 352.659 608.232 351.235 608.922 350.006C609.613 348.776 610.562 347.805 611.77 347.093C612.978 346.381 614.337 346.025 615.847 346.025C617.379 346.025 618.738 346.381 619.925 347.093C621.133 347.805 622.082 348.776 622.772 350.006C623.463 351.235 623.808 352.659 623.808 354.277C623.808 355.852 623.463 357.265 622.772 358.516C622.082 359.746 621.133 360.717 619.925 361.429C618.738 362.141 617.379 362.496 615.847 362.496C614.337 362.496 612.978 362.141 611.77 361.429C610.562 360.717 609.613 359.746 608.922 358.516C608.232 357.265 607.887 355.852 607.887 354.277ZM610.152 354.245C610.152 355.474 610.389 356.564 610.864 357.513C611.36 358.441 612.029 359.174 612.87 359.714C613.733 360.231 614.726 360.49 615.847 360.49C616.969 360.49 617.951 360.231 618.792 359.714C619.655 359.174 620.324 358.441 620.798 357.513C621.295 356.564 621.543 355.474 621.543 354.245C621.543 353.037 621.295 351.969 620.798 351.041C620.324 350.113 619.655 349.38 618.792 348.841C617.951 348.301 616.969 348.032 615.847 348.032C614.726 348.032 613.733 348.301 612.87 348.841C612.029 349.38 611.36 350.113 610.864 351.041C610.389 351.969 610.152 353.037 610.152 354.245ZM638.002 346.446H640.235V362.108H638.294L638.002 359.455C637.571 360.361 636.848 361.094 635.834 361.655C634.842 362.216 633.731 362.496 632.501 362.496C630.667 362.496 629.254 361.914 628.262 360.749C627.291 359.584 626.806 358.052 626.806 356.154V346.414H629.071V355.442C629.071 357.297 629.448 358.602 630.204 359.358C630.98 360.113 631.983 360.49 633.213 360.49C634.723 360.49 635.899 360.005 636.74 359.034C637.582 358.042 638.002 356.618 638.002 354.762V346.446ZM653.073 346.252V348.258H651.844C650.398 348.258 649.244 348.7 648.381 349.585C647.54 350.469 647.119 351.667 647.119 353.177V362.108H644.886V346.446H646.99L647.184 349.52H646.957C647.173 348.506 647.702 347.686 648.543 347.061C649.384 346.414 650.409 346.09 651.617 346.09C651.855 346.09 652.092 346.101 652.329 346.122C652.566 346.144 652.815 346.187 653.073 346.252ZM654.341 354.309C654.341 352.67 654.654 351.235 655.279 350.006C655.927 348.754 656.811 347.783 657.933 347.093C659.076 346.381 660.403 346.025 661.913 346.025C663.725 346.025 665.246 346.511 666.476 347.481C667.727 348.452 668.504 349.747 668.806 351.365H666.573C666.271 350.286 665.699 349.455 664.858 348.873C664.017 348.29 663.046 347.999 661.946 347.999C660.91 347.999 659.982 348.258 659.163 348.776C658.343 349.294 657.696 350.027 657.221 350.976C656.768 351.904 656.542 353.004 656.542 354.277C656.542 355.528 656.757 356.618 657.189 357.545C657.62 358.473 658.224 359.196 659.001 359.714C659.799 360.231 660.727 360.49 661.784 360.49C662.97 360.49 663.995 360.199 664.858 359.616C665.721 359.012 666.303 358.203 666.605 357.189H668.871C668.633 358.247 668.18 359.174 667.512 359.972C666.843 360.771 666.012 361.396 665.02 361.849C664.049 362.281 662.97 362.496 661.784 362.496C660.295 362.496 658.99 362.162 657.868 361.493C656.768 360.803 655.905 359.843 655.279 358.613C654.654 357.384 654.341 355.949 654.341 354.309ZM678.822 362.496C677.312 362.496 675.975 362.151 674.81 361.461C673.666 360.771 672.771 359.811 672.124 358.581C671.477 357.351 671.153 355.917 671.153 354.277C671.153 352.659 671.466 351.235 672.092 350.006C672.739 348.754 673.623 347.783 674.745 347.093C675.867 346.381 677.172 346.025 678.661 346.025C680.084 346.025 681.325 346.338 682.382 346.964C683.461 347.589 684.291 348.463 684.874 349.585C685.478 350.685 685.78 351.979 685.78 353.468V354.568H672.383L672.447 352.95H683.547C683.547 351.44 683.094 350.232 682.188 349.326C681.303 348.398 680.128 347.934 678.661 347.934C677.582 347.934 676.633 348.183 675.813 348.679C675.015 349.175 674.4 349.887 673.968 350.815C673.537 351.721 673.321 352.799 673.321 354.051C673.321 356.122 673.796 357.729 674.745 358.872C675.716 360.016 677.086 360.587 678.855 360.587C680.128 360.587 681.174 360.318 681.994 359.778C682.813 359.239 683.364 358.451 683.644 357.416H685.78C685.37 359.056 684.572 360.318 683.385 361.202C682.199 362.065 680.678 362.496 678.822 362.496ZM700.104 364.859V336.447H701.949V364.859H700.104ZM720.164 338.938V362.108H717.834V338.938H720.164ZM726.668 353.597H719.679V351.494H726.215C727.898 351.494 729.203 351.009 730.131 350.038C731.059 349.045 731.522 347.762 731.522 346.187C731.522 344.591 731.059 343.339 730.131 342.433C729.203 341.506 727.941 341.042 726.345 341.042H718.676V338.938H726.668C728.157 338.938 729.441 339.24 730.519 339.844C731.62 340.449 732.461 341.301 733.043 342.401C733.647 343.501 733.949 344.774 733.949 346.219C733.949 347.622 733.647 348.884 733.043 350.006C732.461 351.127 731.62 352.012 730.519 352.659C729.441 353.285 728.157 353.597 726.668 353.597ZM735.431 354.277C735.431 352.659 735.776 351.235 736.466 350.006C737.157 348.776 738.106 347.805 739.314 347.093C740.522 346.381 741.881 346.025 743.391 346.025C744.923 346.025 746.282 346.381 747.469 347.093C748.677 347.805 749.626 348.776 750.316 350.006C751.007 351.235 751.352 352.659 751.352 354.277C751.352 355.852 751.007 357.265 750.316 358.516C749.626 359.746 748.677 360.717 747.469 361.429C746.282 362.141 744.923 362.496 743.391 362.496C741.881 362.496 740.522 362.141 739.314 361.429C738.106 360.717 737.157 359.746 736.466 358.516C735.776 357.265 735.431 355.852 735.431 354.277ZM737.696 354.245C737.696 355.474 737.933 356.564 738.408 357.513C738.904 358.441 739.573 359.174 740.414 359.714C741.277 360.231 742.269 360.49 743.391 360.49C744.513 360.49 745.495 360.231 746.336 359.714C747.199 359.174 747.868 358.441 748.342 357.513C748.838 356.564 749.087 355.474 749.087 354.245C749.087 353.037 748.838 351.969 748.342 351.041C747.868 350.113 747.199 349.38 746.336 348.841C745.495 348.301 744.513 348.032 743.391 348.032C742.269 348.032 741.277 348.301 740.414 348.841C739.573 349.38 738.904 350.113 738.408 351.041C737.933 351.969 737.696 353.037 737.696 354.245ZM757.528 362.108L752.351 346.446H754.648L757.723 355.895C757.895 356.413 758.057 356.941 758.208 357.481C758.381 358.02 758.542 358.613 758.693 359.26C758.78 358.851 758.888 358.419 759.017 357.966C759.146 357.491 759.265 357.071 759.373 356.704C759.502 356.337 759.589 356.068 759.632 355.895L762.738 346.446H765.036L768.11 355.895C768.175 356.111 768.25 356.359 768.337 356.639C768.423 356.898 768.509 357.168 768.596 357.448C768.682 357.729 768.757 358.031 768.822 358.354C768.908 358.656 768.995 358.958 769.081 359.26C769.189 358.807 769.275 358.441 769.34 358.16C769.405 357.858 769.491 357.545 769.599 357.222C769.707 356.898 769.847 356.456 770.019 355.895L773.126 346.446H775.456L770.149 362.108H767.981L764.745 352.271C764.551 351.688 764.378 351.149 764.227 350.653C764.098 350.157 763.99 349.671 763.903 349.197C763.796 349.628 763.666 350.092 763.515 350.588C763.386 351.063 763.213 351.624 762.997 352.271L759.761 362.108H757.528ZM784.119 362.496C782.609 362.496 781.271 362.151 780.106 361.461C778.963 360.771 778.067 359.811 777.42 358.581C776.773 357.351 776.449 355.917 776.449 354.277C776.449 352.659 776.762 351.235 777.388 350.006C778.035 348.754 778.92 347.783 780.041 347.093C781.163 346.381 782.468 346.025 783.957 346.025C785.381 346.025 786.621 346.338 787.678 346.964C788.757 347.589 789.588 348.463 790.17 349.585C790.774 350.685 791.076 351.979 791.076 353.468V354.568H777.679L777.744 352.95H788.843C788.843 351.44 788.39 350.232 787.484 349.326C786.6 348.398 785.424 347.934 783.957 347.934C782.878 347.934 781.929 348.183 781.109 348.679C780.311 349.175 779.696 349.887 779.265 350.815C778.833 351.721 778.618 352.799 778.618 354.051C778.618 356.122 779.092 357.729 780.041 358.872C781.012 360.016 782.382 360.587 784.151 360.587C785.424 360.587 786.47 360.318 787.29 359.778C788.11 359.239 788.66 358.451 788.94 357.416H791.076C790.666 359.056 789.868 360.318 788.682 361.202C787.495 362.065 785.974 362.496 784.119 362.496ZM802.833 346.252V348.258H801.604C800.158 348.258 799.004 348.7 798.141 349.585C797.3 350.469 796.879 351.667 796.879 353.177V362.108H794.646V346.446H796.75L796.944 349.52H796.717C796.933 348.506 797.461 347.686 798.303 347.061C799.144 346.414 800.169 346.09 801.377 346.09C801.614 346.09 801.852 346.101 802.089 346.122C802.326 346.144 802.574 346.187 802.833 346.252ZM811.77 362.496C810.26 362.496 808.923 362.151 807.758 361.461C806.614 360.771 805.719 359.811 805.072 358.581C804.424 357.351 804.101 355.917 804.101 354.277C804.101 352.659 804.414 351.235 805.039 350.006C805.687 348.754 806.571 347.783 807.693 347.093C808.815 346.381 810.12 346.025 811.608 346.025C813.032 346.025 814.273 346.338 815.33 346.964C816.408 347.589 817.239 348.463 817.822 349.585C818.426 350.685 818.728 351.979 818.728 353.468V354.568H805.331L805.395 352.95H816.495C816.495 351.44 816.042 350.232 815.136 349.326C814.251 348.398 813.075 347.934 811.608 347.934C810.53 347.934 809.58 348.183 808.761 348.679C807.962 349.175 807.348 349.887 806.916 350.815C806.485 351.721 806.269 352.799 806.269 354.051C806.269 356.122 806.744 357.729 807.693 358.872C808.664 360.016 810.034 360.587 811.803 360.587C813.075 360.587 814.122 360.318 814.941 359.778C815.761 359.239 816.311 358.451 816.592 357.416H818.728C818.318 359.056 817.519 360.318 816.333 361.202C815.146 362.065 813.625 362.496 811.77 362.496ZM828.446 362.496C826.936 362.496 825.641 362.141 824.563 361.429C823.484 360.717 822.654 359.746 822.071 358.516C821.489 357.265 821.197 355.863 821.197 354.309C821.197 352.735 821.489 351.321 822.071 350.07C822.654 348.819 823.484 347.837 824.563 347.125C825.663 346.392 826.99 346.025 828.543 346.025C829.837 346.025 830.981 346.306 831.973 346.867C832.987 347.428 833.764 348.28 834.303 349.423V338.518H836.536V362.108H834.594L834.368 358.905C833.807 360.113 833.009 361.019 831.973 361.623C830.938 362.205 829.762 362.496 828.446 362.496ZM828.834 360.458C829.999 360.458 830.981 360.199 831.779 359.681C832.577 359.142 833.192 358.408 833.624 357.481C834.055 356.531 834.271 355.453 834.271 354.245C834.271 353.037 834.055 351.969 833.624 351.041C833.192 350.113 832.577 349.38 831.779 348.841C830.981 348.301 829.999 348.032 828.834 348.032C827.712 348.032 826.742 348.301 825.922 348.841C825.124 349.38 824.509 350.113 824.077 351.041C823.667 351.969 823.463 353.037 823.463 354.245C823.463 355.453 823.667 356.531 824.077 357.481C824.509 358.408 825.124 359.142 825.922 359.681C826.742 360.199 827.712 360.458 828.834 360.458ZM852.112 362.108H850.17V338.518H852.403V349.488C852.942 348.323 853.719 347.46 854.733 346.899C855.768 346.316 856.955 346.025 858.292 346.025C859.824 346.025 861.119 346.392 862.176 347.125C863.254 347.837 864.074 348.819 864.635 350.07C865.218 351.321 865.509 352.735 865.509 354.309C865.509 355.863 865.218 357.265 864.635 358.516C864.053 359.746 863.222 360.717 862.143 361.429C861.065 362.141 859.759 362.496 858.228 362.496C856.933 362.496 855.768 362.205 854.733 361.623C853.697 361.019 852.899 360.113 852.338 358.905L852.112 362.108ZM852.435 354.245C852.435 355.453 852.651 356.531 853.083 357.481C853.514 358.408 854.129 359.142 854.927 359.681C855.747 360.199 856.728 360.458 857.872 360.458C859.015 360.458 859.986 360.199 860.784 359.681C861.582 359.142 862.186 358.408 862.596 357.481C863.028 356.531 863.244 355.453 863.244 354.245C863.244 353.037 863.028 351.969 862.596 351.041C862.186 350.113 861.582 349.38 860.784 348.841C859.986 348.301 859.015 348.032 857.872 348.032C856.728 348.032 855.747 348.301 854.927 348.841C854.129 349.38 853.514 350.113 853.083 351.041C852.651 351.969 852.435 353.037 852.435 354.245ZM868.886 346.446L874.775 362.432L873.125 363.726L866.524 346.446H868.886ZM866.977 368.936V367.092H868.692C869.145 367.092 869.587 367.048 870.018 366.962C870.471 366.897 870.881 366.714 871.248 366.412C871.636 366.11 871.949 365.603 872.187 364.891L878.885 346.446H881.183L873.999 365.7C873.546 366.93 872.931 367.814 872.154 368.354C871.399 368.893 870.461 369.163 869.339 369.163C868.886 369.163 868.465 369.141 868.077 369.098C867.689 369.076 867.322 369.022 866.977 368.936ZM907.881 362.108H891.766V359.972L905.098 341.074H891.863V338.938H907.946V341.009L894.549 359.972H907.881V362.108ZM913.773 362.076H911.54V338.518H913.773V349.164C914.269 348.215 914.981 347.46 915.909 346.899C916.858 346.316 917.991 346.025 919.307 346.025C921.378 346.025 922.888 346.619 923.837 347.805C924.786 348.992 925.261 350.566 925.261 352.53V362.108H923.028V353.015C923.028 351.785 922.856 350.815 922.51 350.103C922.165 349.369 921.68 348.851 921.054 348.549C920.429 348.226 919.706 348.064 918.886 348.064C917.764 348.064 916.826 348.312 916.071 348.808C915.316 349.304 914.744 349.973 914.356 350.815C913.967 351.634 913.773 352.551 913.773 353.565V362.076ZM929.711 362.108V346.446H931.944V362.108H929.711ZM930.812 342.142C930.358 342.142 929.97 341.98 929.647 341.657C929.323 341.333 929.161 340.945 929.161 340.492C929.161 340.039 929.323 339.65 929.647 339.327C929.97 338.982 930.358 338.809 930.812 338.809C931.265 338.809 931.653 338.982 931.976 339.327C932.322 339.65 932.494 340.039 932.494 340.492C932.494 340.945 932.322 341.333 931.976 341.657C931.653 341.98 931.265 342.142 930.812 342.142ZM938.833 362.108H936.6V346.446H938.542L938.866 349.164C939.383 348.172 940.117 347.406 941.066 346.867C942.037 346.306 943.094 346.025 944.237 346.025C946.395 346.025 947.948 346.619 948.897 347.805C949.846 348.992 950.321 350.566 950.321 352.53V362.108H948.088V353.015C948.088 351.181 947.7 349.898 946.923 349.164C946.168 348.431 945.143 348.064 943.849 348.064C942.253 348.064 941.012 348.603 940.128 349.682C939.265 350.739 938.833 352.152 938.833 353.921V362.108ZM953.671 354.277C953.671 352.659 954.016 351.235 954.707 350.006C955.397 348.776 956.346 347.805 957.554 347.093C958.762 346.381 960.122 346.025 961.632 346.025C963.163 346.025 964.522 346.381 965.709 347.093C966.917 347.805 967.866 348.776 968.557 350.006C969.247 351.235 969.592 352.659 969.592 354.277C969.592 355.852 969.247 357.265 968.557 358.516C967.866 359.746 966.917 360.717 965.709 361.429C964.522 362.141 963.163 362.496 961.632 362.496C960.122 362.496 958.762 362.141 957.554 361.429C956.346 360.717 955.397 359.746 954.707 358.516C954.016 357.265 953.671 355.852 953.671 354.277ZM955.936 354.245C955.936 355.474 956.174 356.564 956.648 357.513C957.144 358.441 957.813 359.174 958.655 359.714C959.517 360.231 960.51 360.49 961.632 360.49C962.753 360.49 963.735 360.231 964.576 359.714C965.439 359.174 966.108 358.441 966.583 357.513C967.079 356.564 967.327 355.474 967.327 354.245C967.327 353.037 967.079 351.969 966.583 351.041C966.108 350.113 965.439 349.38 964.576 348.841C963.735 348.301 962.753 348.032 961.632 348.032C960.51 348.032 959.517 348.301 958.655 348.841C957.813 349.38 957.144 350.113 956.648 351.041C956.174 351.969 955.936 353.037 955.936 354.245Z" fill="white"/>
<defs>
<filter id="filter0_d_37_43" x="208" y="201" width="200.272" height="200.272" filterUnits="userSpaceOnUse" color-interpolation-filters="sRGB">
<feFlood flood-opacity="0" result="BackgroundImageFix"/>
<feColorMatrix in="SourceAlpha" type="matrix" values="0 0 0 0 0 0 0 0 0 0 0 0 0 0 0 0 0 0 127 0" result="hardAlpha"/>
<feOffset dy="1"/>
<feGaussianBlur stdDeviation="8"/>
<feComposite in2="hardAlpha" operator="out"/>
<feColorMatrix type="matrix" values="0 0 0 0 0 0 0 0 0 0.152941 0 0 0 0 0.0313726 0 0 0 0.25 0"/>
<feBlend mode="normal" in2="BackgroundImageFix" result="effect1_dropShadow_37_43"/>
<feBlend mode="normal" in="SourceGraphic" in2="effect1_dropShadow_37_43" result="shape"/>
</filter>
<clipPath id="clip0_37_43">
<rect width="168.272" height="168.272" fill="white" transform="translate(224 216)"/>
</clipPath>
</defs>
</svg>
